<?xml version="1.0" encoding="UTF-8" standalone="no"?>
<!-- Created with Inkscape (http://www.inkscape.org/) -->

<svg
   xmlns:dc="http://purl.org/dc/elements/1.1/"
   xmlns:cc="http://creativecommons.org/ns#"
   xmlns:rdf="http://www.w3.org/1999/02/22-rdf-syntax-ns#"
   xmlns:svg="http://www.w3.org/2000/svg"
   xmlns="http://www.w3.org/2000/svg"
   xmlns:xlink="http://www.w3.org/1999/xlink"
   xmlns:sodipodi="http://sodipodi.sourceforge.net/DTD/sodipodi-0.dtd"
   xmlns:inkscape="http://www.inkscape.org/namespaces/inkscape"
   width="74.937912mm"
   height="74.937912mm"
   viewBox="0 0 265.52803 265.52803"
   id="svg235965"
   version="1.1"
   inkscape:version="0.91 r13725"
   sodipodi:docname="check-box-checked.svg">
  <defs
     id="defs235967">
    <linearGradient
       inkscape:collect="always"
       xlink:href="#linearGradient235850"
       id="linearGradient235856"
       x1="-94.3013"
       y1="26.01111"
       x2="6.0180211"
       y2="151.27002"
       gradientUnits="userSpaceOnUse" />
    <linearGradient
       inkscape:collect="always"
       id="linearGradient235850">
      <stop
         style="stop-color:#00082c;stop-opacity:1;"
         offset="0"
         id="stop235852" />
      <stop
         style="stop-color:#00082c;stop-opacity:0;"
         offset="1"
         id="stop235854" />
    </linearGradient>
    <linearGradient
       inkscape:collect="always"
       xlink:href="#linearGradient235842"
       id="linearGradient235848"
       x1="215.23927"
       y1="350.2131"
       x2="134.38608"
       y2="504.79956"
       gradientUnits="userSpaceOnUse" />
    <linearGradient
       inkscape:collect="always"
       id="linearGradient235842">
      <stop
         style="stop-color:#ffc089;stop-opacity:1"
         offset="0"
         id="stop235844" />
      <stop
         style="stop-color:#ff8f8f;stop-opacity:1"
         offset="1"
         id="stop235846" />
    </linearGradient>
    <filter
       inkscape:collect="always"
       style="color-interpolation-filters:sRGB"
       id="filter235904"
       x="-0.035999998"
       width="1.072"
       y="-0.035999998"
       height="1.072">
      <feGaussianBlur
         inkscape:collect="always"
         stdDeviation="0.59409644"
         id="feGaussianBlur235906" />
    </filter>
    <filter
       inkscape:collect="always"
       style="color-interpolation-filters:sRGB"
       id="filter235886"
       x="-0.035999998"
       width="1.072"
       y="-0.036000002"
       height="1.072">
      <feGaussianBlur
         inkscape:collect="always"
         stdDeviation="0.5789441"
         id="feGaussianBlur235888" />
    </filter>
    <filter
       inkscape:collect="always"
       style="color-interpolation-filters:sRGB"
       id="filter235872"
       x="-0.047999993"
       width="1.096"
       y="-0.048000008"
       height="1.096">
      <feGaussianBlur
         inkscape:collect="always"
         stdDeviation="0.73151931"
         id="feGaussianBlur235874" />
    </filter>
  </defs>
  <sodipodi:namedview
     id="base"
     pagecolor="#ffffff"
     bordercolor="#666666"
     borderopacity="1.0"
     inkscape:pageopacity="0.0"
     inkscape:pageshadow="2"
     inkscape:zoom="0.35"
     inkscape:cx="-529.37884"
     inkscape:cy="15.621166"
     inkscape:document-units="px"
     inkscape:current-layer="layer1"
     showgrid="false"
     fit-margin-top="0"
     fit-margin-left="0"
     fit-margin-right="0"
     fit-margin-bottom="0"
     inkscape:window-width="1920"
     inkscape:window-height="1023"
     inkscape:window-x="0"
     inkscape:window-y="0"
     inkscape:window-maximized="1" />
  <metadata
     id="metadata235970">
    <rdf:RDF>
      <cc:Work
         rdf:about="">
        <dc:format>image/svg+xml</dc:format>
        <dc:type
           rdf:resource="http://purl.org/dc/dcmitype/StillImage" />
        <dc:title></dc:title>
      </cc:Work>
    </rdf:RDF>
  </metadata>
  <g
     inkscape:label="Layer 1"
     inkscape:groupmode="layer"
     id="layer1"
     transform="translate(-141.52169,-282.45532)">
    <g
       transform="translate(128.09945,2.1488978)"
       id="g235908">
      <rect
         ry="56.203724"
         y="280.30643"
         x="13.422242"
         height="265.52805"
         width="265.52805"
         id="rect120236"
         style="opacity:1;fill:#00345f;fill-opacity:1;fill-rule:evenodd;stroke:none;stroke-width:2.13800001;stroke-linecap:round;stroke-linejoin:round;stroke-miterlimit:4;stroke-dasharray:none;stroke-dashoffset:0;stroke-opacity:0.97647059" />
      <rect
         style="opacity:1;fill:#1948bf;fill-opacity:1;fill-rule:evenodd;stroke:none;stroke-width:2.13800001;stroke-linecap:round;stroke-linejoin:round;stroke-miterlimit:4;stroke-dasharray:none;stroke-dashoffset:0;stroke-opacity:0.97647059"
         id="rect120246"
         width="234.49229"
         height="234.49229"
         x="28.940115"
         y="295.82431"
         ry="49.634453" />
      <path
         id="rect120252"
         d="m 28.961026,344.59223 c -0.0048,0.28969 -0.02124,0.57658 -0.02124,0.86749 l 0,135.2227 c 0,27.49749 22.138147,49.63328 49.635638,49.63328 l 135.222686,0 c 27.49749,0 49.63328,-22.13579 49.63328,-49.63328 l 0,-135.2227 c 0,-0.29091 -0.0163,-0.5778 -0.0212,-0.86749 l -234.449178,0 z"
         style="opacity:1;fill:#296ecf;fill-opacity:1;fill-rule:evenodd;stroke:none;stroke-width:2.13800001;stroke-linecap:round;stroke-linejoin:round;stroke-miterlimit:4;stroke-dasharray:none;stroke-dashoffset:0;stroke-opacity:0.97647059"
         inkscape:connector-curvature="0" />
      <path
         id="rect120250"
         d="m 28.93982,409.81915 0,70.86327 c 0,27.49749 22.138146,49.63328 49.635637,49.63328 l 135.222693,0 c 27.49749,0 49.63328,-22.13579 49.63328,-49.63328 l 0,-70.86327 -234.49161,0 z"
         style="opacity:1;fill:#1994bf;fill-opacity:1;fill-rule:evenodd;stroke:none;stroke-width:2.13800001;stroke-linecap:round;stroke-linejoin:round;stroke-miterlimit:4;stroke-dasharray:none;stroke-dashoffset:0;stroke-opacity:0.97647059"
         inkscape:connector-curvature="0" />
      <path
         id="rect120248"
         d="m 28.93982,475.04608 0,5.63634 c 0,27.49749 22.138146,49.63328 49.635637,49.63328 l 135.222693,0 c 27.49749,0 49.63328,-22.13579 49.63328,-49.63328 l 0,-5.63634 -234.49161,0 z"
         style="opacity:1;fill:#39b4df;fill-opacity:1;fill-rule:evenodd;stroke:none;stroke-width:2.13800001;stroke-linecap:round;stroke-linejoin:round;stroke-miterlimit:4;stroke-dasharray:none;stroke-dashoffset:0;stroke-opacity:0.97647059"
         inkscape:connector-curvature="0" />
      <rect
         ry="0"
         y="472.47467"
         x="97.17173"
         height="9.2485847"
         width="144.16501"
         id="rect120238"
         style="opacity:0.80699978;fill:#dcdcdc;fill-opacity:0.89807165;fill-rule:evenodd;stroke:none;stroke-width:2.13800001;stroke-linecap:round;stroke-linejoin:round;stroke-miterlimit:4;stroke-dasharray:none;stroke-dashoffset:0;stroke-opacity:0.97647059" />
      <rect
         style="opacity:0.83699999;fill:#cecece;fill-opacity:0.91460057;fill-rule:evenodd;stroke:none;stroke-width:2.13800001;stroke-linecap:round;stroke-linejoin:round;stroke-miterlimit:4;stroke-dasharray:none;stroke-dashoffset:0;stroke-opacity:0.97647059"
         id="rect120240"
         width="144.29051"
         height="9.2485847"
         x="97.17173"
         y="411.26526"
         ry="0" />
      <rect
         ry="0"
         y="350.05588"
         x="97.903275"
         height="9.2485847"
         width="144.16501"
         id="rect120242"
         style="opacity:0.79799996;fill:#adadad;fill-opacity:0.86776859;fill-rule:evenodd;stroke:none;stroke-width:2.13800001;stroke-linecap:round;stroke-linejoin:round;stroke-miterlimit:4;stroke-dasharray:none;stroke-dashoffset:0;stroke-opacity:0.97647059" />
      <path
         inkscape:connector-curvature="0"
         id="path235811"
         transform="translate(258.78924,385.43716)"
         d="m 5.1796875,-13.419922 -45.5859375,8.6210939 -85.86328,91.8359371 -2.37695,33.369141 39.99023,39.99023 52.613281,0 c 31.1368633,0 56.203125,-25.06626 56.203125,-56.20312 l 0,-102.6328131 L 5.1796875,-13.419922 Z"
         style="opacity:0.49599998;fill:url(#linearGradient235856);fill-opacity:1;fill-rule:evenodd;stroke:none;stroke-width:1px;stroke-linecap:butt;stroke-linejoin:miter;stroke-opacity:1" />
      <path
         inkscape:connector-curvature="0"
         id="rect235712"
         d="m 64.040053,439.74178 32.646413,32.64642 33.186884,33.18686 0.2692,0.2692 L 263.96884,372.01795 230.51277,338.56189 130.14463,438.93005 97.498206,406.28363 64.040053,439.74178 Z"
         style="opacity:1;fill:url(#linearGradient235848);fill-opacity:1;fill-rule:evenodd;stroke:none;stroke-width:2.13800001;stroke-linecap:round;stroke-linejoin:round;stroke-miterlimit:4;stroke-dasharray:none;stroke-dashoffset:0;stroke-opacity:0.97647059" />
      <path
         style="opacity:0.58399999;fill:#8b0000;fill-opacity:0.70247934;fill-rule:evenodd;stroke:none;stroke-width:2.13800001;stroke-linecap:round;stroke-linejoin:round;stroke-miterlimit:4;stroke-dasharray:none;stroke-dashoffset:0;stroke-opacity:0.97647059;filter:url(#filter235904)"
         d="M 76.343306,354.42019 A 19.803214,19.803214 0 0 1 56.540092,374.2234 19.803214,19.803214 0 0 1 36.736877,354.42019 19.803214,19.803214 0 0 1 56.540092,334.61697 19.803214,19.803214 0 0 1 76.343306,354.42019 Z"
         id="path235890"
         inkscape:connector-curvature="0" />
      <path
         inkscape:connector-curvature="0"
         id="path235800"
         d="M 74.828077,354.42019 A 18.287985,18.287985 0 0 1 56.540092,372.70817 18.287985,18.287985 0 0 1 38.252106,354.42019 18.287985,18.287985 0 0 1 56.540092,336.1322 18.287985,18.287985 0 0 1 74.828077,354.42019 Z"
         style="opacity:1;fill:#ff3232;fill-opacity:1;fill-rule:evenodd;stroke:none;stroke-width:2.13800001;stroke-linecap:round;stroke-linejoin:round;stroke-miterlimit:4;stroke-dasharray:none;stroke-dashoffset:0;stroke-opacity:0.97647059" />
      <path
         inkscape:connector-curvature="0"
         id="path235876"
         d="M 75.83823,410.50334 A 19.298138,19.298138 0 0 1 56.540092,429.80147 19.298138,19.298138 0 0 1 37.241953,410.50334 19.298138,19.298138 0 0 1 56.540092,391.2052 19.298138,19.298138 0 0 1 75.83823,410.50334 Z"
         style="opacity:0.697;fill:#366000;fill-opacity:0.68595048;fill-rule:evenodd;stroke:none;stroke-width:2.13800001;stroke-linecap:round;stroke-linejoin:round;stroke-miterlimit:4;stroke-dasharray:none;stroke-dashoffset:0;stroke-opacity:0.97647059;filter:url(#filter235886)" />
      <path
         style="opacity:1;fill:#d0ff94;fill-opacity:1;fill-rule:evenodd;stroke:none;stroke-width:2.13800001;stroke-linecap:round;stroke-linejoin:round;stroke-miterlimit:4;stroke-dasharray:none;stroke-dashoffset:0;stroke-opacity:0.97647059"
         d="M 74.828077,410.50334 A 18.287985,18.287985 0 0 1 56.540092,428.79132 18.287985,18.287985 0 0 1 38.252106,410.50334 18.287985,18.287985 0 0 1 56.540092,392.21535 18.287985,18.287985 0 0 1 74.828077,410.50334 Z"
         id="path235803"
         inkscape:connector-curvature="0" />
      <path
         transform="matrix(1.0503976,0,0,1.0503976,-7.114809,-25.305731)"
         style="opacity:0.64800002;fill:#49178c;fill-opacity:0.78236916;fill-rule:evenodd;stroke:none;stroke-width:2.13800001;stroke-linecap:round;stroke-linejoin:round;stroke-miterlimit:4;stroke-dasharray:none;stroke-dashoffset:0;stroke-opacity:0.97647059;filter:url(#filter235872)"
         d="M 79.286782,472.05536 A 18.287985,18.287985 0 0 1 60.998796,490.34333 18.287985,18.287985 0 0 1 42.710811,472.05536 18.287985,18.287985 0 0 1 60.998796,453.76737 18.287985,18.287985 0 0 1 79.286782,472.05536 Z"
         id="path235858"
         inkscape:connector-curvature="0" />
      <path
         inkscape:connector-curvature="0"
         id="path235805"
         d="M 75.246173,470.54013 A 18.287985,18.287985 0 0 1 56.958187,488.8281 18.287985,18.287985 0 0 1 38.670202,470.54013 18.287985,18.287985 0 0 1 56.958187,452.25214 18.287985,18.287985 0 0 1 75.246173,470.54013 Z"
         style="opacity:1;fill:#975ee4;fill-opacity:1;fill-rule:evenodd;stroke:none;stroke-width:2.13800001;stroke-linecap:round;stroke-linejoin:round;stroke-miterlimit:4;stroke-dasharray:none;stroke-dashoffset:0;stroke-opacity:0.97647059" />
    </g>
  </g>
</svg>
