<svg id="svg125328" xmlns:rdf="http://www.w3.org/1999/02/22-rdf-syntax-ns#" xmlns="http://www.w3.org/2000/svg" height="492.43px" width="365.659px" version="1.1" xmlns:cc="http://creativecommons.org/ns#" xmlns:xlink="http://www.w3.org/1999/xlink" viewBox="0 0 540.94933 350.09151" xmlns:dc="http://purl.org/dc/elements/1.1/">
 <defs id="defs125330">
  <filter id="m" style="color-interpolation-filters:sRGB" height="1.2734" width="1.1479" y="-.13671" x="-.073971">
   <feGaussianBlur id="feGaussianBlur124745" stdDeviation="0.32727132"/>
  </filter>
  <filter id="j" style="color-interpolation-filters:sRGB" height="1.0746" width="1.3062" y="-.037312" x="-.15308">
   <feGaussianBlur id="feGaussianBlur124837" stdDeviation="0.20900375"/>
  </filter>
  <filter id="g" style="color-interpolation-filters:sRGB" height="1.0813" width="1.6322" y="-.040627" x="-.31612">
   <feGaussianBlur id="feGaussianBlur124937" stdDeviation="0.25578225"/>
  </filter>
  <filter id="f" style="color-interpolation-filters:sRGB" height="1.1134" width="1.1274" y="-.056707" x="-.063699">
   <feGaussianBlur id="feGaussianBlur124967" stdDeviation="0.39507288"/>
  </filter>
  <filter id="e" style="color-interpolation-filters:sRGB" height="1.0991" width="1.1521" y="-.049541" x="-.076058">
   <feGaussianBlur id="feGaussianBlur124997" stdDeviation="0.39134411"/>
  </filter>
  <filter id="d" style="color-interpolation-filters:sRGB" height="1.0819" width="1.4573" y="-.040934" x="-.22864">
   <feGaussianBlur id="feGaussianBlur125031" stdDeviation="0.37012394"/>
  </filter>
  <filter id="k" style="color-interpolation-filters:sRGB" height="1.1271" width="1.166" y="-.063564" x="-.083017">
   <feGaussianBlur id="feGaussianBlur124809" stdDeviation="0.39755449"/>
  </filter>
  <filter id="i" style="color-interpolation-filters:sRGB" height="1.3114" width="1.115" y="-.15572" x="-.057511">
   <feGaussianBlur id="feGaussianBlur124869" stdDeviation="0.50114453"/>
  </filter>
  <filter id="h" style="color-interpolation-filters:sRGB" height="1.1376" width="1.2156" y="-.068802" x="-.10782">
   <feGaussianBlur id="feGaussianBlur124913" stdDeviation="0.22408189"/>
  </filter>
  <filter id="l" style="color-interpolation-filters:sRGB" height="1.1722" width="1.1237" y="-.086087" x="-.061875">
   <feGaussianBlur id="feGaussianBlur124771" stdDeviation="0.30400455"/>
  </filter>
  <filter id="ae" style="color-interpolation-filters:sRGB" height="1.0727" width="1.0713" y="-.036356" x="-.035651">
   <feGaussianBlur id="feGaussianBlur124093" stdDeviation="0.8946227"/>
  </filter>
  <filter id="z" style="color-interpolation-filters:sRGB" height="1.1357" width="1.2204" y="-.067862" x="-.11021">
   <feGaussianBlur id="feGaussianBlur124243" stdDeviation="1.5612809"/>
  </filter>
  <filter id="aa" style="color-interpolation-filters:sRGB" height="1.0862" width="1.1084" y="-.043077" x="-.054194">
   <feGaussianBlur id="feGaussianBlur124205" stdDeviation="0.86429955"/>
  </filter>
  <filter id="ab" style="color-interpolation-filters:sRGB" height="1.1044" width="1.232" y="-.052201" x="-.11599">
   <feGaussianBlur id="feGaussianBlur124187" stdDeviation="3.3261679"/>
  </filter>
  <filter id="af" style="color-interpolation-filters:sRGB" height="1.1181" width="1.1844" y="-.059055" x="-.092214">
   <feGaussianBlur id="feGaussianBlur124067" stdDeviation="2.5159988"/>
  </filter>
  <filter id="ac" style="color-interpolation-filters:sRGB" height="1.0987" width="1.2661" y="-.049356" x="-.13304">
   <feGaussianBlur id="feGaussianBlur124153" stdDeviation="3.3950717"/>
  </filter>
  <filter id="ad" style="color-interpolation-filters:sRGB" height="1.1324" width="1.0753" y="-.066179" x="-.037656">
   <feGaussianBlur id="feGaussianBlur124115" stdDeviation="1.3256723"/>
  </filter>
  <filter id="s" style="color-interpolation-filters:sRGB" height="1.1331" width="1.1569" y="-.066527" x="-.078454">
   <feGaussianBlur id="feGaussianBlur124521" stdDeviation="1.0130992"/>
  </filter>
  <filter id="q" style="color-interpolation-filters:sRGB" height="1.0781" width="1.625" y="-.039030" x="-.31250">
   <feGaussianBlur id="feGaussianBlur124585" stdDeviation="0.43910167"/>
  </filter>
  <filter id="r" style="color-interpolation-filters:sRGB" height="1.0895" width="1.4111" y="-.044769" x="-.20555">
   <feGaussianBlur id="feGaussianBlur124581" stdDeviation="0.43910167"/>
  </filter>
  <filter id="u" style="color-interpolation-filters:sRGB" height="1.2981" width="1.292" y="-.14905" x="-.14598">
   <feGaussianBlur id="feGaussianBlur124487" stdDeviation="0.35669011"/>
  </filter>
  <filter id="t" style="color-interpolation-filters:sRGB" height="1.3563" width="1.5046" y="-.17815" x="-.25232">
   <feGaussianBlur id="feGaussianBlur124491" stdDeviation="0.35669011"/>
  </filter>
  <filter id="y" style="color-interpolation-filters:sRGB" height="1.3366" width="1.159" y="-.16828" x="-.079517">
   <feGaussianBlur id="feGaussianBlur124285" stdDeviation="0.65253234"/>
  </filter>
  <filter id="w" style="color-interpolation-filters:sRGB" height="1.3214" width="1.1137" y="-.16069" x="-.056863">
   <feGaussianBlur id="feGaussianBlur124365" stdDeviation="0.36561678"/>
  </filter>
  <filter id="x" style="color-interpolation-filters:sRGB" height="1.348" width="1.1566" y="-.17398" x="-.078303">
   <feGaussianBlur id="feGaussianBlur124327" stdDeviation="0.45702239"/>
  </filter>
  <filter id="v" style="color-interpolation-filters:sRGB" height="1.4506" width="1.1636" y="-.22531" x="-.081778">
   <feGaussianBlur id="feGaussianBlur124407" stdDeviation="0.78479111"/>
  </filter>
  <filter id="n" style="color-interpolation-filters:sRGB" height="1.3852" width="1.1279" y="-.19259" x="-.063934">
   <feGaussianBlur id="feGaussianBlur124703" stdDeviation="0.73963008"/>
  </filter>
  <filter id="o" style="color-interpolation-filters:sRGB" height="1.3868" width="1.1073" y="-.19338" x="-.053652">
   <feGaussianBlur id="feGaussianBlur124657" stdDeviation="0.5817475"/>
  </filter>
  <filter id="p" style="color-interpolation-filters:sRGB" height="1.2485" width="1.1269" y="-.12423" x="-.063452">
   <feGaussianBlur id="feGaussianBlur124623" stdDeviation="0.52637081"/>
  </filter>
  <filter id="am" style="color-interpolation-filters:sRGB" height="1.1265" width="1.3985" y="-.063234" x="-.19924">
   <feGaussianBlur id="feGaussianBlur123861" stdDeviation="2.2608649"/>
  </filter>
  <filter id="al" style="color-interpolation-filters:sRGB" height="1.2194" width="1.1361" y="-.10969" x="-.068058">
   <feGaussianBlur id="feGaussianBlur123895" stdDeviation="2.7266543"/>
  </filter>
  <filter id="ao" style="color-interpolation-filters:sRGB" height="1.2526" width="1.2286" y="-.12631" x="-.11429">
   <feGaussianBlur id="feGaussianBlur123681" stdDeviation="7.0489272"/>
  </filter>
  <filter id="ah" style="color-interpolation-filters:sRGB" height="1.1423" width="1.1457" y="-.071153" x="-.072867">
   <feGaussianBlur id="feGaussianBlur124011" stdDeviation="2.8786002"/>
  </filter>
  <filter id="ag" style="color-interpolation-filters:sRGB" height="1.1528" width="1.1361" y="-.076423" x="-.068061">
   <feGaussianBlur id="feGaussianBlur124037" stdDeviation="1.0999993"/>
  </filter>
  <filter id="ak" style="color-interpolation-filters:sRGB" height="1.1013" width="1.0912" y="-.050670" x="-.045597">
   <feGaussianBlur id="feGaussianBlur123913" stdDeviation="2.8187338"/>
  </filter>
  <filter id="aj" style="color-interpolation-filters:sRGB" height="1.1013" width="1.1471" y="-.050670" x="-.073542">
   <feGaussianBlur id="feGaussianBlur123939" stdDeviation="1.2523449"/>
  </filter>
  <linearGradient id="b" y2="468.01" gradientUnits="userSpaceOnUse" x2="2476.1" y1="376.22" x1="2556.3">
   <stop id="stop123625" stop-color="#fba196" offset="0"/>
   <stop id="stop123627" stop-color="#f98b7d" offset="1"/>
  </linearGradient>
  <filter id="an" style="color-interpolation-filters:sRGB" height="1.1443" width="1.201" y="-.072147" x="-.10051">
   <feGaussianBlur id="feGaussianBlur123827" stdDeviation="3.2547255"/>
  </filter>
  <linearGradient id="a" y2="439.53" gradientUnits="userSpaceOnUse" x2="2471.1" y1="337.51" x1="2546.8">
   <stop id="stop123633" stop-color="#fba89e" offset="0"/>
   <stop id="stop123635" stop-color="#fa9d91" offset="1"/>
  </linearGradient>
  <filter id="ai" style="color-interpolation-filters:sRGB" height="1.1559" width="1.2499" y="-.077933" x="-.12497">
   <feGaussianBlur id="feGaussianBlur123985" stdDeviation="1.8783826"/>
  </filter>
  <filter id="c" style="color-interpolation-filters:sRGB" height="1.0955" width="1.1614" y="-.047760" x="-.080675">
   <feGaussianBlur id="feGaussianBlur244521" stdDeviation="9.8107231"/>
  </filter>
 </defs>
 <g id="layer1" transform="translate(-102.44 -403.71)">
  <g id="g244523">
   <rect id="rect244497" opacity=".847" fill-rule="evenodd" ry="7.972" height="493" filter="url(#c)" width="291.86" y="427.25" x="125.98" fill="#0f2d37"/>
   <g id="g125214" transform="translate(-2312.8 270)">
    <rect id="rect123410" fill-rule="evenodd" ry="8.3162" height="493.13" width="304.77" y="144.37" x="2432.6" fill="#174555"/>
    <g id="g125154" fill-rule="evenodd">
     <g fill="#132e32">
      <path id="path123489" d="m2723.9 414.65-.4616-23.597-9.4043-.1154.1731 7.0388h-2.5386l.4616 16.847z"/>
      <path id="path123509" d="m2726.4 394.8.577 20.136 5.5964-.0577-.577-20.251z"/>
      <path id="path123505" d="m2675.7 380.55.4277 33.871 10.045.24478-.2762-31.462-1.8462.11539-.062-3.0339z"/>
      <path id="path123507" d="m2656.8 377.8-.1154 36.809-8.1811-.0478.9116-36.877z"/>
     </g>
     <path id="path123487" d="m2477 414.44.2564-36.891-2.8253-.0956.056-3.2507h-7.1541l.2109 5.0376-2.2879.0396.3462 35.309z" fill="#102d33"/>
     <path id="path123503" d="m2668.9 414.48.2587-42.925-11.452-.11539-.8078 43.04z" fill="#132e32"/>
     <path id="path123511" d="m2676 414.54-.4055-39.987-6.4701.23079.4616 39.579z" fill="#132e32"/>
    </g>
    <g id="g125117" fill-rule="evenodd">
     <path id="path124705" opacity="0.585" d="m2460.8 414.71c-.2016-2.2826-.097-3.0364-.1014-4.3312 1.8356.35836 3.9768-.13037 4.4466-.51515-3.3557-1.3491-8.1301-.7948-10.618-.74014.7949.57994 1.1817.53682 4.2439 1.3229l-.3939 4.2636z" filter="url(#m)" fill="#461306"/>
     <path id="path123485" d="m2460.8 414.71c-.2016-2.2826-.097-3.0364-.1014-4.3312 1.8356.35836 3.9768-.13037 4.4466-.51515-3.3557-1.3491-8.1301-.7948-10.618-.74014.7949.57994 1.1817.53682 4.2439 1.3229l-.3939 4.2636z" fill="#f28469"/>
     <path id="path124813" opacity=".594" d="m2460.5 401.71-2.2686 13.023 1.5124.33609 1.7644-13.444z" filter="url(#j)" fill="#521607"/>
     <path id="path124871" opacity="0.562" d="m2454.7 414.83c-.2312-2.8657-.081-9.9239-.1154-14.955l-1.3567-.15499c-.1567 5.0208.6134 12.093-.4698 15.062z" filter="url(#g)" fill="#641b09"/>
     <g id="g124943" opacity="0.554" transform="matrix(1.0151 0 0 1.0151 -40.997 -6.1477)" filter="url(#f)" fill="#481306">
      <path id="path124945" d="m2721.9 402.49-14.885.34617c.3172-.71176.741-1.4988 1.2115-1.6155 3.4581-.53402 5.5392-1.6922 7.0965-2.5386 2.3038 1.2076 4.0088 1.8164 5.7118 2.4232.4831.18078.5799.79292.8654 1.3847z"/>
      <path id="path124947" d="m2715 402.65.058 12.404 1.0963.34618-.1732-13.27z"/>
     </g>
     <g id="g124939" fill="#f19c89">
      <path id="path123495" d="m2721.9 402.49-14.885.34617c.3172-.71176.741-1.4988 1.2115-1.6155 3.4581-.53402 5.5392-1.6922 7.0965-2.5386 2.3038 1.2076 4.0088 1.8164 5.7118 2.4232.4831.18078.5799.79292.8654 1.3847z"/>
      <path id="path123497" d="m2715 402.65.058 12.404 1.0963.34618-.1732-13.27z"/>
     </g>
     <g id="g124973" opacity="0.589" transform="matrix(1.0466 0 0 1.0466 -126.16 -18.901)" filter="url(#e)" fill="#481306">
      <path id="path124975" d="m2707.3 414.01c-.7862-3.5724-.012-4.0232 0-6.0003.3111-.74099-.087-.71349-.6925-.46155l-.7063.74593-1.3649.84152c2.0266.78735.9708 1.677 1.1482 2.682.4338 1.5983.3191 2.0998.3461 2.8848.7169.063 1.9698.66199 1.2694-.69235z"/>
      <path id="path124977" d="m2707.9 407.32c-.01-.45652.6309-.65536 1.3846-.80772 1.6988-.49745 1.517-1.7472 2.1924-2.654.6185-1.7028 1.768-4.4806-.9231-4.3848-1.0466-.0785-1.3673-.19012-1.5-.57694-.9922-4.5355-3.9061-2.7146-4.5002-1.9616-.549 1.4903-2.2543 1.5194-1.5001 2.7694-2.5609-.28096-3.6278 4.3079-2.4231 6.4618-.88.91005-1.0404 1.705 0 2.3078.233 1.6566 2.3479 1.8141 3.2308 1.6155l1.5001-.80773z"/>
     </g>
     <g id="g125003" opacity="0.557" transform="matrix(1.1396 0 0 1.0247 -375.26 -9.9773)" filter="url(#d)" fill="#481306">
      <path id="path125005" d="m2690.2 415.01c-1.3024-2.49-.9628-9.8981-1.4245-14.7l-1.143.27322c-.062 4.7462 1.3022 11.172-.2859 14.393z"/>
      <path id="path125007" d="m2688.9 400.79c.4943-3.3894 2.0265-4.3013.4954-6.5318-.2861-.26224-.7653-.089-1.333-.9443-.6277.96426-1.0611.82918-1.5361 1.699-.6553 1.4718 1.288 2.8975 1.1585 5.9687z"/>
     </g>
     <path id="path123412" d="m2432.6 414.51v214.68c0 4.6072 3.7093 8.3164 8.3164 8.3164h288.14c4.6071 0 8.3164-3.7092 8.3164-8.3164v-214.68h-304.77z" fill="#fb9a8a"/>
     <path id="path123471" d="m2438 414.92c.3858-1.1226.3734-1.4485.5571-2.1668l-1.4382-.37416c-.5114.93521.071 1.5058-1.6179 2.8335z" fill="#bb817f"/>
     <path id="path124773" opacity="0.474" d="m2443.3 412.3c.6721-.9068-2.4963-2.2568-1.8881-3.6503 1.0803-1.4376-2.2369-2.6708-1.3846-3.0209 1.2209-1.3053-1.7044-4.2182-2.2657-6.5453-.7951 3.6569-3.5668 4.83-2.6433 6.0418.5747 2.0638-2.5482 3.3448-1.2588 4.7831 3.4014.87429-3.2317 2.2128-1.5105 3.2727 1.4263.28353 1.8632.1147 2.895-.62936 1.6621.21824 3.6678 3.3582 4.9091 0-.2153 2.3706 2.0716-.22825 3.3985.12587z" filter="url(#k)" fill="#481306"/>
     <path id="path123473" d="m2442.8 411.82c.6161-.83128-2.2884-2.0688-1.7309-3.3463.9904-1.3179-2.0506-2.4484-1.2693-2.7694 1.1193-1.1966-1.5624-3.8669-2.077-6.0003-.7289 3.3524-3.2698 4.4277-2.4232 5.5387.5269 1.892-2.336 3.0663-1.1539 4.3848 3.1181.80148-2.9626 2.0285-1.3847 3.0001 1.3075.25992 1.708.10515 2.6539-.57695 1.5237.20006 3.3623 3.0785 4.5003 0-.1974 2.1731 1.8991-.20924 3.1155.11539z" fill="#f49780"/>
     <path id="path124811" opacity="0.484" d="m2450.3 399.75c8.9032 1.5051 14.229 3.0102 20.913 4.5154-3.32-2.4913-6.4102-5.0112-7.9613-7.7236-6.3506 2.2556-9.0693 2.3924-12.952 3.2083z" filter="url(#i)" fill="#521607"/>
     <path id="path123475" d="m2450.6 399.92c8.6458 1.4616 13.818 2.9232 20.309 4.3848-3.224-2.4192-6.2249-4.8664-7.7311-7.5003-6.167 2.1904-8.8071 2.3232-12.578 3.1155z" fill="#f49780"/>
     <path id="path124873" opacity="0.461" d="m2452.9 400.46c.3179-2.1888-2.1966-4.8369-1.2336-5.4728 1.3416-.80402 1.7154-1.72 2.5034-2.2654.4636.96921 1.6702 1.5284 2.1421 2.2804.6993 1.5124-1.8559 3.4042-1.6848 5.5363z" filter="url(#h)" fill="#5f1908"/>
     <path id="path123477" d="m2454.7 414.83c-.2312-2.8657-.081-9.9239-.1154-14.955l-1.5145-.12342c-.1567 5.0208.7712 12.062-.312 15.031z" fill="#f49780"/>
     <path id="path123479" d="m2453 400.15c.2973-2.0474-2.0863-4.4612-1.1855-5.056 1.2549-.75207 1.6045-1.6088 2.3416-2.119.4337.90658 1.5623 1.4297 2.0037 2.133.6541 1.4147-1.736 3.1842-1.5759 5.1785z" fill="#f49780"/>
     <path id="path123481" d="m2478 414.63c.1186-.80343-.1669-2.0097-.6528-3.6191-.7147-.7132-1.4019-1.4954-2.5385-1.1539l-1.0385-.11539.6445.96271c.8366.39894 1.6618 1.462 2.3556 1.922-.1154.66787-.2307 1.3358-.3461 2.0036z" fill="#bb817f"/>
     <path id="path124747" d="m2477.4 411.81c.3516-.71297.3067-1.8224 1.9652-1.2283 2.2221 2.6469 1.6848.1692 2.4567.12283-1.5793-3.4655.9232-4.7023-1.3512-6.1415-1.5985-1.237-2.9195-1.086-4.299-1.2283-1.8273.0389-1.7729 2.5482-3.5621 3.3164-2.6218.59108-2.4166 2.0324-2.5794 2.9479.3678.53206.044.83356 1.1055 1.5968 1.7141 1.1454 2.3418-1.6488 3.4392-1.1055z" filter="url(#l)" fill="#5d1908"/>
     <path id="path123483" d="m2477.4 411.55c.3303-.66979.2881-1.7121 1.8462-1.1539 2.0875 2.4866 1.5827.15895 2.3079.11539-1.4837-3.2556.8672-4.4175-1.2694-5.7695-1.5017-1.162-2.7426-1.0202-4.0386-1.1539-1.7166.0365-1.6655 2.3938-3.3463 3.1155-2.463.55528-2.2702 1.9093-2.4232 2.7694.3456.49983.041.78307 1.0386 1.5001 1.6102 1.076 2.1999-1.5489 3.2308-1.0385z" fill="#f49780"/>
     <g id="g124969" fill="#f19c89">
      <path id="path123491" d="m2707.3 414.01c-.7862-3.5724-.012-4.0232 0-6.0003.3111-.74099-.087-.71349-.6925-.46155l-.7063.74593-1.3649.84152c2.0266.78735.9708 1.677 1.1482 2.682.4338 1.5983.3191 2.0998.3461 2.8848.7169.063 1.9698.66199 1.2694-.69235z"/>
      <path id="path123493" d="m2707.9 407.32c-.01-.45652.6309-.65536 1.3846-.80772 1.6988-.49745 1.517-1.7472 2.1924-2.654.6185-1.7028 1.768-4.4806-.9231-4.3848-1.0466-.0785-1.3673-.19012-1.5-.57694-.9922-4.5355-3.9061-2.7146-4.5002-1.9616-.549 1.4903-2.2543 1.5194-1.5001 2.7694-2.5609-.28096-3.6278 4.3079-2.4231 6.4618-.88.91005-1.0404 1.705 0 2.3078.233 1.6566 2.3479 1.8141 3.2308 1.6155l1.5001-.80773z"/>
     </g>
     <g id="g124999" fill="#f19c89">
      <path id="path123499" d="m2690.2 415.01c-1.3024-2.49-.9628-9.8981-1.4245-14.7l-1.143.27322c-.062 4.7462 1.3022 11.172-.2859 14.393z"/>
      <path id="path123501" d="m2688.9 400.79c.4943-3.3894 2.0265-4.3013.4954-6.5318-.2861-.26224-.7653-.089-1.333-.9443-.6277.96426-1.0611.82918-1.5361 1.699-.6553 1.4718 1.288 2.8975 1.1585 5.9687z"/>
     </g>
     <path id="path123513" d="m2460.5 401.83-2.2977 12.963 1.5634.0107 1.7134-13.055z" fill="#f49780"/>
    </g>
    <g id="g125070" fill-rule="evenodd">
     <path id="path124069" opacity="0.66" d="m2629.6 347.23c2.4987 2.3251 4.5294 3.2457 6.6086 4.3124 8.0233 1.6627 9.2998-.52127 11.285-2.3638 6.0198-6.1487 10.46-12.46 16.082-18.609 2.4755-3.1206 4.1115-4.7718 4.8464-4.8464 3.9229-1.1029 7.2108-2.735 8.5389-6.0003 1.9104-3.2496-2.2796-9.3113-1.294-11.854 2.2942-3.8362 4.9177-5.1558 8.1826-10.352 1.3166-2.3431.8448-4.04-1.5759-4.4408-3.3289 7.3045-8.0574 8.3424-8.6953 11.837-6.4649 3.0244-8.0323 2.5464-9.7651 8.6324-2.1333 3.9192-.7689 4.4076-8.5456 9.4079-5.9777 3.9233-8.1904 7.8465-11.308 11.77-8.7017-10.501-8.3183-7.677-11.077-9.462l-8.5388 17.224c1.7522 1.0918 3.5045 3.6522 5.2567 4.744z" filter="url(#ae)" fill="#103241"/>
     <path id="path124207" opacity="0.793" d="m2587.4 271.45c.6464 3.3995.5257 7.0643 2.0769 8.6542 3.0235 2.2643 6.3405 4.6264 6.6926 6.0002.2125 1.2308-.2512 2.4616-1.2693 3.6925-1.0757 1.2702 2.3007 3.6871 1.6155 4.154-1.3051 1.0261-.7961 2.264.2559 3.0273 1.0676 1.0323-.3374 3.1363.4364 5.1654 1.1667 2.8774-11.539 1.1154-13.847 2.5386 4.5105.0478 7.5259-1.0082 8.6543.57694 4.5154 6.6486 2.9873 9.3691 1.5001 12.116-4.9354 3.2399-11.033 7.2931-13.501 6.6926l-4.7309-1.0385-7.8465-12.116-4.1541-23.309 15.462-18.693z" filter="url(#z)" fill="#0e2d3a"/>
     <path id="path123435" d="m2586.5 271.62c.6464 3.3995.5257 7.0643 2.0769 8.6542 3.0235 2.2643 6.3405 4.6264 6.6926 6.0002.2125 1.2308-.2512 2.4616-1.2693 3.6925-1.0757 1.2702 2.3007 3.6871 1.6155 4.154-1.3051 1.0261-.7961 2.264.2559 3.0273 1.0676 1.0323-.3374 3.1363.4364 5.1654 1.1667 2.8774-11.539 1.1154-13.847 2.5386 4.5105.0478 7.5259-1.0082 8.6543.57694 4.5154 6.6486 2.9873 9.3691 1.5001 12.116-4.5044 3.6709-11.027 7.2991-13.501 6.6926l-4.7309-1.0385-7.8465-12.116-4.1541-23.309 15.462-18.693z" fill="#1a5169"/>
     <path id="path124189" opacity="0.793" d="m2587.4 270.26c.9989 2.6534-3.2888 5.202-6.1157 6.0003-3.9265 1.1169-8.9548.48421-7.5003 1.6154l.4616 12.231-.4615 4.731c-1.7328-2.6224-3.6544-4.0178-6.0004-2.654-3.4071 2.9083 1.7223 7.0971 3.9233 10.847.2616 3.008.8151 6.4536-.6924 6.808-2.7335 4.0494-6.2744-.37922-9.5773-2.3078-4.4692-5.7815-9.7196-9.8053-11.885-20.77-.7535-5.5867-.3203-10.335 5.5386-16.962 2.0665-2.0408 4.2545-6.0007 18.001-6.4618 9.7727.0948 13.249 3.3858 14.308 6.9234z" filter="url(#aa)" fill="#0b242e"/>
     <path id="path123433" d="m2586.8 269.55c.9989 2.6534-3.2888 5.202-6.1157 6.0003-3.9265 1.1169-8.9548.48421-7.5003 1.6154l.4616 12.231-.4615 4.731c-1.7328-2.6224-3.6544-4.0178-6.0004-2.654-3.4071 2.9083 1.7223 7.0971 3.9233 10.847.2616 3.008.8151 6.4536-.6924 6.808-2.7335 4.0494-6.2744-.37922-9.5773-2.3078-4.4692-5.7815-9.7196-9.8053-11.885-20.77-.7535-5.5867-.3203-10.335 5.5386-16.962 2.0665-2.0408 4.2545-6.0007 18.001-6.4618 9.7727.0948 13.249 3.3858 14.308 6.9234z" fill="#1a5169"/>
     <path id="path123439" d="m2629 345.98c2.4987 2.3251 4.5294 3.2457 6.6086 4.3124 8.0233 1.6627 9.2998-.52127 11.285-2.3638 6.0198-6.1487 10.46-12.46 16.082-18.609 2.4755-3.1206 4.1115-4.7718 4.8464-4.8464 3.9229-1.1029 7.2108-2.735 8.5389-6.0003 1.9104-3.2496-2.2796-9.3113-1.294-11.854 2.2942-3.8362 4.9177-5.1558 8.1826-10.352 1.3166-2.3431.8448-4.04-1.5759-4.4408-3.3289 7.3045-8.0574 8.3424-8.6953 11.837-6.4649 3.0244-8.0323 2.5464-9.7651 8.6324-2.1333 3.9192-.7689 4.4076-8.5456 9.4079-5.9777 3.9233-8.1904 7.8465-11.308 11.77-8.7017-10.501-8.3183-7.677-11.077-9.462l-8.5388 17.224c1.7522 1.0918 3.5045 3.6522 5.2567 4.744z" fill="#1a5169"/>
     <path id="path124155" opacity="0.763" d="m2627.1 396.92c1.411 4.8588 2.7253 10.036 1.154 24.693-3.3672 37.622-5.8466 29.085-8.7696 43.617-11.976 19.712-16.462 12.877-24.693 26.078-7.42 9.7961-8.2973 21.046-12.231 31.617-1.1661 9.0964-6.6986 13.203-10.616 19.155 1.0824.90404 2.4934.65823 2.7694 4.3848-1.1991 4.2086-6.0814 2.103-10.154 1.3847-.5514 1.0476-.4728 2.4553-3.9233 1.8462-1.7624-10.476 1.6976-9.7324 3.0957-13.492l5.5783-7.3454c.1612-1.5358.1485-3.3032-.9791-6.5574.1569-2.9978 2.0794-5.0146 6.1518-5.8371l6.4619-41.31.9231-43.617-7.385-31.155 39.002-.92312z" filter="url(#ab)" fill="#0c2631"/>
     <path id="path124039" opacity="0.539" d="m2626.3 343.08c2.5424-6.0031 6.7699-13.27 7.6158-18.001-6.3457-8.1426-11.476-14.214-23.652-21.502-4.2148-1.2187-12.491.81145-18.756 1.2331 4.8695 4.9385 4.9386 9.2267 2.809 12.844-2.0652 3.0403-5.5655 3.9281-8.4036 5.8091-6.0227 4.3368-11.604-3.5091-12.627-.68554l-4.8531 18.943 13.588 26.682c3.1806 15.824-1.2187 27.054-1.2195 32.67 7.8463 5.7887 24.876 4.3268 40.652 3.8557 3.4301.33971 6.1556-1.6107 7.8465-6.9234 2.1064-18.93-4.4479-44.124-3.0002-54.926z" filter="url(#af)" fill="#0d2c39"/>
     <path id="path123443" d="m2628.4 397.63c1.411 4.8588 2.7253 10.036 1.154 24.693-3.3672 37.622-5.8466 29.085-8.7696 43.617-11.976 19.712-16.462 12.877-24.693 26.078-7.42 9.7961-8.2973 21.046-12.231 31.617-1.1661 9.0964-6.6986 13.203-10.616 19.155 1.0824.90404 2.4934.65823 2.7694 4.3848-1.1991 4.2086-6.0814 2.103-10.154 1.3847-.5514 1.0476-.4728 2.4553-3.9233 1.8462-1.7624-10.476 1.6976-9.7324 3.0957-13.492l5.5783-7.3454c.1612-1.5358.1485-3.3032-.9791-6.5574.1569-2.9978 2.0794-5.0146 6.1518-5.8371l6.4619-41.31.9231-43.617-3.5969-32.292 35.214.2133z" fill="#1a5169"/>
     <path id="path124117" opacity="0.723" d="m2639.8 563.17c-7.2319 3.791-16.271-.24821-24.693-1.6155-5.4796-1.3965-10.876-2.3754-15.924-1.6155-3.1536-2.4713-2.5318-4.523-1.8578-6.569.8313-2.2908 1.4617-4.7826 1.8578-7.5085-2.9892-15.888-7.6321-20.961-9.0004-30.463-3.7522-16.419-3.7197-20.944-4.6155-28.386-.8102-7.53 1.9315-13.099 1.6154-18.001-4.9265-23.834-5.9001-46.231-6.091-68.344 11.686-1.081 20.013-1.8477 33.323.72514 9.1247 2.8995 6.306 11.771 6.4618 19.155-4.8167 20.783-2.6763 28.424-3.9232 42.463-.052 10.158-7.6124 15.139-10.441 25.155-3.1475 11.405 2.7926 43.321 8.5949 58.618 8.032 5.6944 17.025 10.044 27.232 12.693-.6892 1.2308.8509 2.4616-2.5387 3.6925z" filter="url(#ac)" fill="#0a1e27"/>
     <path id="path123437" d="m2624.9 342.7c2.5424-6.0031 6.7699-13.27 7.6158-18.001-6.3457-8.1426-11.476-14.214-23.652-21.502-4.2148-1.2187-12.491.81145-18.756 1.2331 4.8695 4.9385 4.9386 9.2267 2.809 12.844-2.0652 3.0403-5.5655 3.9281-8.4036 5.8091-6.0227 4.3368-11.604-3.5091-12.627-.68554l-4.8531 18.943 13.588 26.682c3.1806 15.824-1.2187 27.054-1.2195 32.67 7.8463 5.7887 25.887 8.4937 41.662 8.0225 3.4301.33971 8.1759-5.1462 8.099-10.459.5912-20.192-5.7106-44.755-4.2629-55.557z" fill="#1a5169"/>
     <path id="path123445" d="m2638.8 562.64c-7.2319 3.791-16.271-.24821-24.693-1.6155-5.4796-1.3965-10.876-2.3754-15.924-1.6155-3.1536-2.4713-2.5318-4.523-1.8578-6.569.8313-2.2908 1.4617-4.7826 1.8578-7.5085-2.9892-15.888-7.6321-20.961-9.0004-30.463-3.7522-16.419-3.7197-20.944-4.6155-28.386-.8102-7.53 1.9315-13.099 1.6154-18.001-4.9265-23.834-6.5314-46.736-6.7223-68.849 11.686-1.081 20.644-1.3426 33.954 1.2302 9.1247 2.8995 6.306 11.771 6.4618 19.155-4.8167 20.783-2.6763 28.424-3.9232 42.463-.052 10.158-7.6124 15.139-10.441 25.155-3.1475 11.405 2.7926 43.321 8.5949 58.618 8.032 5.6944 17.025 10.044 27.232 12.693-.6892 1.2308.8509 2.4616-2.5387 3.6925z" fill="#1a5169"/>
     <path id="path124095" opacity="0.665" d="m2575.2 368.05c5.8243 4.8822 10.648 22.559 15.574 25.346 5.3571 1.8261 20.842-5.0291 31.617-7.8465 13.557-5.3723 15.526-1.2414 22.864-5.7299 3.7241-1.9915 8.4007-6.3475 8.0609-9.2708.303-3.4741-2.1461-15.435-3.0561-10.926-1.7372 6.302-3.4685 3.3436-6.175 4.0024-1.5835.13205.5158-2.8924 1.8066-5.2239 1.1714-2.3292-2.4539-2.9676-4.2728-.89992-1.7934 4.0448-3.5869 4.7392-5.3803 6.3546-3.2179 1.1379-4.1795 2.8399-3.9233 4.8464-.08 1.957-.9073 2.793-1.8462 3.4617-12.766 6.1202-15.99 4.6815-24.272 4.238-1.8711-.39362-4.629-.34376-7.3453-.31477-1.2987-10.071-4.954-23.812-13.616-30.463 0 0-9.462 11.308-12.924 12.693l-3.4617 1.3847c1.3131 2.9834 3.2981 5.7989 6.3498 8.3476z" filter="url(#ad)" fill="#123849"/>
     <path id="path123441" d="m2575.2 366.98c5.8243 4.8822 10.648 22.559 15.574 25.346 5.3571 1.8261 20.842-5.0291 31.617-7.8465 13.557-5.3723 15.526-1.2414 22.864-5.7299 3.7241-1.9915 8.4007-6.3475 8.0609-9.2708.363-5.0342-3.8083-17.676-3.8137-10.421-3.7912 2.8881-2.7571 2.8168-5.4174 3.4974-1.5835.13205.5158-2.8924 1.8066-5.2239 1.1714-2.3292-2.4539-2.9676-4.2728-.89992-1.7934 4.0448-3.5869 4.7392-5.3803 6.3546-3.2179 1.1379-4.1795 2.8399-3.9233 4.8464-.08 1.957-.9073 2.793-1.8462 3.4617-12.766 6.1202-15.99 4.6815-24.272 4.238-1.8711-.39362-4.629-.34376-7.3453-.31477-1.2987-10.071-4.954-23.812-13.616-30.463 0 0-9.462 11.308-12.924 12.693l-3.4617 1.3847c1.3131 2.9834 3.2981 5.7989 6.3498 8.3476z" fill="#1a5169"/>
    </g>
    <g id="g125202">
     <g id="g125190">
      <path id="path124493" opacity="0.527" d="m2506.5 283.66c-2.6782-6.6936-10.592-10.119-11.758-17.08-1.1514-8.1411-.7682-14.124 10.318-18.929 4.4626-.67599 12.145-2.0114 18.299 5.6367 6.8457 11.382-6.4581 23.331-9.1637 29.946-2.7741-.84261-5.3487-1.7582-7.6948.42638z" fill-rule="evenodd" filter="url(#s)" fill="#4d0e06"/>
      <path id="path123447" d="m2506.5 283.22c-2.6782-6.6242-10.592-10.014-11.758-16.903-1.1514-8.0567-.7682-13.977 10.318-18.733 4.4626-.66899 12.145-1.9906 18.299 5.5783 6.8457 11.264-6.4581 23.09-9.1637 29.635-2.7741-.83388-5.3487-1.74-7.6948.42196z" fill-rule="evenodd" fill="#f59083"/>
      <path id="path123449" opacity="0.609" d="m2506.5 248.55c-3.3241 6.2796-5.0655 13.825.2307 27.001" filter="url(#q)" stroke="#b76456" stroke-width=".91384px" fill="none"/>
      <path id="path123451" opacity="0.609" d="m2501 251.78c-4.9106 10.048-1.2427 16.983 2.7693 23.54" filter="url(#r)" stroke="#b76456" stroke-width=".91384px" fill="none"/>
     </g>
     <g id="g125196" fill-rule="evenodd">
      <path id="path124409" opacity=".572" d="m2507 287.28c-.3821 1.1995.2195 3.3828.7491 5.4938 1.7267-.0832 2.9618-.16648 4.2327-.24972.254-1.5387.5078-1.8287.7617-5.4938-1.5725.0833-2.0254.16649-5.7435.24972z" filter="url(#u)" fill="#430c05"/>
      <path id="path123453" d="m2507.2 287.32c-.3531 1.1085.2029 3.1262.6923 5.0772 1.5958-.0769 2.7372-.15385 3.9117-.23078.2347-1.422.4693-1.69.7039-5.0772-1.4532.077-1.8718.15386-5.3079.23078z" fill="#f59083"/>
      <path id="path124411" opacity=".572" d="m2508.3 287.34c.3919-1.4261.7836-2.2874 1.1756-4.5556.739 1.34 1.4781 2.2129 2.2171 2.144l-.7491 2.6612z" filter="url(#t)" fill="#430c05"/>
      <path id="path123455" d="m2508.4 287.37c.3622-1.3179.7242-2.1139 1.0864-4.21.683 1.2384 1.366 2.0451 2.049 1.9814l-.6923 2.4594z" fill="#f59083"/>
     </g>
    </g>
    <g id="g125179" fill-rule="evenodd">
     <g id="g125175">
      <path id="path124245" opacity="0.582" d="m2498.5 313.04c-3.8601-6.5241-11.145-6.0858-13.154-1.7308-.2307 1.4546-.4615 1.9821-.6922 2.5386-1.8073-.70921-3.4218-.55109-4.6156 1.5001-.7741 1.9199.9414 1.8942 2.3077 1.8462 5.0988.62716 10.768-.45489 16.155-.69234 1.6572-.78561 1.0863-2.0664 0-3.4617z" filter="url(#y)" fill="#350904"/>
      <path id="path123457" d="m2498.2 312.47c-3.8601-6.5241-11.145-6.0858-13.154-1.7308-.2307 1.4546-.4615 1.9821-.6922 2.5386-1.8073-.70921-3.4218-.55109-4.6156 1.5001-.7741 1.9199.9414 1.8942 2.3077 1.8462 5.0988.62716 10.768-.45489 16.155-.69234 1.6572-.78561 1.0863-2.0664 0-3.4617z" fill="#f59083"/>
     </g>
     <g id="g125167">
      <path id="path124329" opacity="0.602" d="m2499.2 313.48c2.2194-2.5775 5.6941-3.063 7.1541 0 .1523.59741.6447 1.4132 1.9943 1.1125 3.393.39017 3.5766-.83857 4.1105.16764.7191 1.0519 2.0376 2.656-.209 2.225-5.1677.87359-9.0262.2017-13.636-.0414.3847-2.0221.2011-2.5611.5857-3.4638z" filter="url(#w)" fill="#751609"/>
      <path id="path123459" d="m2499.2 313.86c1.0837-2.8257 5.9477-3.5033 7.1541 0 .2862.86527 1.1141.77738 1.6155.92313 3.393.39017 4.0817-.77544 4.6156.23077.7191 1.0519 1.785 2.2772-.4616 1.8462-5.1677.87359-9.4681.0123-14.078-.23078.3847-2.0221.7693-1.8666 1.1539-2.7694z" fill="#f59083"/>
     </g>
     <g id="g125171">
      <path id="path124287" opacity="0.587" d="m2490.5 319.22c4.5157-.0354 10.569.41361 12.355-.16765.2142-1.0343.8122-2.6697-1.3629-3.1068-.9123-1.5449-1.2936-3.9519-4.154-3.3463-1.0176.32799-3.1662 1.3839-4.3849 4.0386-1.77-.19267-2.1808.29425-2.7693.69233-.6409.54167-1.3967 1.6423.3157 1.8898z" filter="url(#x)" fill="#5f1208"/>
      <path id="path123461" d="m2490.3 319.08c4.5157-.0354 11.137.35048 12.924-.23078.2142-1.0343.5597-2.1015-1.6154-2.5386-.9123-1.5449-1.2936-3.9519-4.154-3.3463-1.0176.32799-3.1662 1.3839-4.3849 4.0386-1.77-.19267-2.1808.29425-2.7693.69233-.6409.54167-1.7124 1.1372 0 1.3847z" fill="#f59083"/>
     </g>
    </g>
    <g id="g125163" fill-rule="evenodd">
     <path id="path124367" opacity="0.499" d="m2491.8 371.1c-4.0528-8.3899-8.8613-2.9597-10.767-.91027.4343 1.4866-1.5467 1.1418-2.3478 1.6916-.8837 1.0566-1.0992 1.975.4796 2.5224 7.2201 1.2735 13.84-.18095 20.761-.27143 1.5684.15557 1.4489-1.8294-.2385-1.9-2.2338.73852-2.3632-.77533-3.8181 0 .7488-2.844-2.4258-3.4538-4.0686-1.1322z" filter="url(#v)" fill="#4f1507"/>
     <path id="path123463" d="m2491.8 371.05c-3.9195-7.1335-8.5698-2.5165-10.413-.77394.42 1.264-1.4958.97084-2.2706 1.4383-.8546.89837-1.063 1.6793.4639 2.1446 6.9826 1.0828 13.385-.15385 20.078-.23078 1.5168.13227 1.4012-1.5554-.2307-1.6155-2.1603.62792-2.2855-.65923-3.6925 0 .7242-2.4181-2.346-2.9365-3.9348-.9627z" fill="#f49780"/>
    </g>
    <g id="g125098" fill-rule="evenodd">
     <g id="g125094">
      <path id="path124659" opacity="0.624" d="m2674.3 354.69c-6.8487-9.3851-13.27-1.3616-13.83 1.0339-.7436 1.2596-3.3011.5161-4.9521 1.0026-1.3188.73215-.8195 2.572.4215 2.3577 2.7841.40646 19.748.65099 20.745-.15142 2.7961-1.9433 3.6596-.54034 5.4843-.62402-.3975-1.4647 1.6245-2.3466-1.1923-4.3942-.8652-.18217-2.0685.002-4.0535 1.0339-.6636-.39081-1.3035-.81568-2.623-.25848z" filter="url(#n)" fill="#4e1609"/>
      <path id="path123465" d="m2674.1 354.7c-6.6285-8.3793-12.844-1.2157-13.385.92312-.7197 1.1246-3.1949.4608-4.7928.89512-1.2764.65369-.7932 2.2963.4079 2.105 2.6946.3629 19.112.58123 20.078-.13519 2.7062-1.735 3.5419-.48244 5.3079-.55715-.3847-1.3078 1.5723-2.0951-1.1539-3.9232-.8374-.16266-2.002.002-3.9232.92312-.6422-.34893-1.2616-.72827-2.5386-.23078z" fill="#f19c89"/>
     </g>
     <g id="g125090">
      <path id="path124625" opacity="0.552" d="m2678.8 355.81c3.9138-.37593 7.1538-7.0389 11.743-1.1062 1.8137-1.932 6.1571-3.032 9.0203 2.2125 1.4189-.25976 2.5769-1.3915 3.4888.42548.5735 1.1654-.3602 1.9783-3.0634 1.787-1.0213-.40263-3.3283.59577-5.361.17019-5.4172-.11108-10.616.6505-16.254-.3404-1.3098-.28062-1.9829-2.4965.4255-3.1486z" filter="url(#o)" fill="#3c1107"/>
      <path id="path123467" d="m2679.3 355.81c3.7526-.36045 6.8592-6.7491 11.26-1.0607 1.739-1.8524 5.9036-2.9072 8.6489 2.1214 1.3605-.24906 2.4708-1.3342 3.3452.40796.5498 1.1174-.3454 1.8968-2.9373 1.7135-.9793-.38605-3.1913.57124-5.1403.16318-5.1942-.10651-10.179.62372-15.584-.32638-1.2559-.26907-1.9013-2.3937.408-3.0189z" fill="#f19c89"/>
     </g>
     <g id="g125086">
      <path id="path124587" opacity="0.514" d="m2677.3 361.97c6.4294.46008 11.969.36413 16.515-.35324 1.0996-.53624 1.9611-1.1518.9715-2.3845-1.1054-.33663-2.6379-.075-2.6495-1.9429-.4544-4.5015-6.9483-6.4187-9.8029-4.4157-1.4925 1.3929-3.6012 3.0401-4.0624 6.182-.5398-.20577-1.2678-.19993-2.0311.26495-.3764.0264-2.3976 2.6987 1.0596 2.6494z" filter="url(#p)" fill="#4b1509"/>
      <path id="path123469" d="m2677.9 361.6c5.9401.42506 11.058.33641 15.258-.32636 1.0159-.49543 1.8119-1.0642.8976-2.203-1.0213-.31101-2.4372-.0693-2.4479-1.795-.4198-4.1589-6.4195-5.9302-9.0568-4.0796-1.3789 1.2869-3.3272 2.8088-3.7533 5.7115-.4987-.19011-1.1713-.18472-1.8765.24478-.3477.0244-2.2151 2.4933.979 2.4478z" fill="#f19c89"/>
     </g>
    </g>
    <g id="g125051" fill-rule="evenodd">
     <path id="path123829" opacity="0.401" d="m2533 471.4c-1.5565 5.2866-5.9427 7.888-4.4934 18.913l-.3263 28.231c.154 5.0885-10.666 8.7556-5.0587 13.055 4.0925 2.2803 7.1844 5.6152 8.3224 10.444.6793 4.7384.3443 5.806 1.7951 7.1802 1.6347 1.6977 4.2437 3.8963 6.5274 3.9165 1.9629-.0544 3.2765.78873 4.0796-.16319 2.1944-2.8164-.9443-6.8208-.4896-9.628.245-1.917-3.8519-7.2953-3.4269-10.607.3808.44797.7616-4.68 1.1423-10.607 1.2941-10.489 3.1401-11.176 5.222-29.373l1.1423-8.1593 1.3055-15.339-1.3055-1.6319c-3.6086-.14747-9.0264 1.8157-14.436 3.7697z" filter="url(#am)" fill="#901505"/>
     <path id="path123431" d="m2534.7 471.85c-1.5565 5.2866-5.9427 7.888-4.4934 18.913l-.3263 28.231c.154 5.0885-10.666 8.7556-5.0587 13.055 4.0925 2.2803 7.1844 5.6152 8.3224 10.444.6793 4.7384.3443 5.806 1.7951 7.1802 1.6347 1.6977 4.2437 3.8963 6.5274 3.9165 1.9629-.0544 3.2765.78873 4.0796-.16319 2.1944-2.8164-.9443-6.8208-.4896-9.628.245-1.917-3.8519-7.2953-3.4269-10.607.3808.44797.7616-4.68 1.1423-10.607 1.2941-10.489 3.1401-11.176 5.222-29.373l1.1423-8.1593 1.3055-15.339-1.3055-1.6319c-3.6086-.14747-9.0264 1.8157-14.436 3.7697z" fill="#fba196"/>
     <path id="path123863" opacity="0.479" d="m2546.8 471.39.9791 2.1214c-9.284-.0847-15.003 9.0989-22.356 14.034-3.1877 3.1426-8.5664 5.4637-13.381 7.9961-3.841 1.3511-7.4481.36872-9.7911-1.1423-3.8306-4.122-10.535-.18545-7.8329 4.2428 1.1978 1.6376 1.6298 3.7641-1.1423 8.6488-2.4843 4.8801-4.4081 4.4811-6.8538 8.6488-.9216 1.4559-2.5007 3.1757-3.2637 4.2428-1.1034 1.8459-1.8917.77421-3.4269.24478-1.167 1.4188-1.0865 3.1373 1.4686 3.6717 4.3191 1.2523 6.6282-.10845 8.8121-1.6319 1.1357-.92669 2.2449-1.6405 3.5901-4.2428 1.4324-3.028 5.4796-4.3836 7.6697-5.7115 4.1474-1.7373 6.1578-4.5022 17.134-8.6488 18.781-8.9247 18.406-8.1399 22.193-9.4648 8.7031-2.4891 12.828-4.2456 16.155-5.8747 5.9784-3.6121 10.872-5.1799 17.298-12.239 1.2177-1.3033 1.336-3.4312.8159-6.0379l-5.6299-5.0588c-9.3157-1.4249-12.051 3.5339-17.869 4.7324z" filter="url(#al)" fill="#921506"/>
     <path id="path123429" d="m2546 469.88.9791 2.1214c-9.284-.0847-15.003 9.0989-22.356 14.034-3.1877 3.1426-8.5664 5.4637-13.381 7.9961-3.841 1.3511-7.4481.36872-9.7911-1.1423-3.8306-4.122-10.535-.18545-7.8329 4.2428 1.1978 1.6376 1.6298 3.7641-1.1423 8.6488-2.4843 4.8801-4.4081 4.4811-6.8538 8.6488-.9216 1.4559-2.5007 3.1757-3.2637 4.2428-1.1034 1.8459-1.8917.77421-3.4269.24478-1.167 1.4188-1.0865 3.1373 1.4686 3.6717 4.3191 1.2523 6.6282-.10845 8.8121-1.6319 1.1357-.92669 2.2449-1.6405 3.5901-4.2428 1.4324-3.028 5.4796-4.3836 7.6697-5.7115 4.1474-1.7373 6.1578-4.5022 17.134-8.6488 18.781-8.9247 18.406-8.1399 22.193-9.4648 8.7031-2.4891 12.828-4.2456 16.155-5.8747 5.9784-3.6121 10.872-5.1799 17.298-12.239 1.2177-1.3033 1.336-3.4312.8159-6.0379l-5.6299-5.0588c-9.3157-1.4249-12.051 3.5339-17.869 4.7324z" fill="#fba196"/>
     <path id="path123639" opacity="0.574" d="m2514.1 366.26c4.914-6.758 3.5336-12.823 15.132-20.317 13.932-5.5483 20.107-1.3024 23.593 8.9777 3.7499 11.782 7.1255 40.379 18.832 59.112 6.9967 11.479 17.763 14.892 29.978 15.203 3.6751.33915 3.4245 17.457 1.5068 19.876-1.3577.69609-2.2791 2.5941-4.5504.77364-6.0268-2.0832-4.8974 5.025-6.97 8.0205-.4827 13.476-8.0016 13.368-13.244 17.655-3.0063.27529-6.0438 1.8963-8.9127-3.6815-7.4224-8.0569-11.536-.78734-22.847.27939-8.8054 2.6676-17.21 6.8565-27.302 4.6418-7.3428-2.6229-16.468-2.7338-25.543-2.914-12.178 1.7308-19.771-4.1842-27.991-9.0523-4.0778-2.8423-6.8194-6.3977-9.0858-10.207-1.7474-2.531 4.8516-8.1871 11.426-14.933 11.978-22.257 39.72-45.768 49.482-64.386-2.5112-1.4579-3.9737-4.1327-3.5049-9.0487z" filter="url(#ao)" fill="#751006"/>
     <path id="path123987" opacity="0.537" d="m2555.6 287.36c1.0824.91978 9.2743-.56773 12.728 8.6488 3.9217 8.212 7.2 21.564 21.867 33.127 4.9228 3.8349 17.359 9.0626 19.909 10.281 2.3254.98864 1.667 2.3072 7.6697 3.9165-8.2536-1.4408-15.884-5.5833-23.499-9.7911 9.5253 6.488 18.544 13.024 32.474 19.093-13.994-2.7262-25.149-10.911-36.39-18.93 9.2009 9.9099 16.675 20.19 34.596 28.231 5.021 2.4334 17.805 7.4426 25.457.16318-3.536 8.468-15.076 6.1796-26.681 3.1821-10.663-2.899-18.978-8.2472-27.823-13.3 7.4847 7.2128 13.134 14.12 26.762 22.356-11.641 6.2568-23.281-5.4525-34.922-12.892 8.524 7.6729 12.923 16.171 25.62 23.009-12.212-6.337-29.983-9.4528-50.588-27.089l-3.7533-14.034c-.137-3.5553.1693-8.1622 5.8747-10.281 2.0192-.59335 4.1104-2.6976 5.2064-5.0218.69-1.9582.7657-2.9063 2.3954-4.7383-2.3038-3.0254 1.0534-5.8222.08-8.5752-1.3599-2.2417-1.9162-3.8424-3.2761-5.4898.994-1.9582.5919-3.9165.3264-5.8747-.883-2.9283-2.0743-4.6689-4.2428-8.6488-1.3236-.94276-2.556-1.7944-4.0797-2.9374-3.148-1.6464-3.9152-2.9527-5.7115-4.406z" filter="url(#ah)" fill="#450a02"/>
     <path id="path123425" d="m2554.5 287.61c1.0824.91978 9.2743-.56773 12.728 8.6488 3.9217 8.212 7.2 21.564 21.867 33.127 4.9228 3.8349 17.359 9.0626 19.909 10.281 2.3254.98864 1.667 2.3072 7.6697 3.9165-8.2536-1.4408-15.884-5.5833-23.499-9.7911 9.5253 6.488 18.544 13.024 32.474 19.093-13.994-2.7262-25.149-10.911-36.39-18.93 9.2009 9.9099 16.675 20.19 34.596 28.231 5.021 2.4334 17.805 7.4426 25.457.16318-3.536 8.468-15.076 6.1796-26.681 3.1821-10.663-2.899-18.978-8.2472-27.823-13.3 7.4847 7.2128 13.134 14.12 26.762 22.356-11.641 6.2568-23.281-5.4525-34.922-12.892 8.524 7.6729 12.923 16.171 25.62 23.009-12.212-6.337-29.983-9.4528-50.588-27.089l-3.7533-14.034c-.137-3.5553.1693-8.1622 5.8747-10.281 2.0192-.59335 4.1104-2.6976 5.2064-5.0218.69-1.9582.7657-2.9063 2.3954-4.7383-2.3038-3.0254 1.0534-5.8222.08-8.5752-1.3599-2.2417-1.9162-3.8424-3.2761-5.4898.994-1.9582.5919-3.9165.3264-5.8747-.883-2.9283-2.0743-4.6689-4.2428-8.6488-1.3236-.94276-2.556-1.7944-4.0797-2.9374-3.148-1.6464-3.9152-2.9527-5.7115-4.406z" fill="#fba196"/>
     <path id="path124013" opacity="0.542" d="m2564.4 370.04c5.6758-3.0274 13.299-4.1071 16.971-9.1384 2.1755-2.0669 2.4394-3.178 6.5274-6.2011.7246-2.418-.1086-5.8746 2.2846-7.1802 2.4348.95844 1.8165 3.4434 2.6109 5.2219-1.2334 1.9889.6572.59358-3.9164 6.2011 2.2245-1.6353 3.0768-3.8968 4.0308-5.2642.3412-.97833-.9148-1.158 1.6155-3.2309 3.6135-.46156 2.7644-.92312 3.9232-1.3847.612.38119.7826.32097 2.5386 1.8462l1.7308.80773c.1659.92823 1.9018 1.2677-2.5385 3.9232 1.3489 2.6905 2.9868 5.4922.4615 6.6926-.7652.16526-.8761-.22207-2.1924 1.0385.6874.96158.4406 1.9232.2308 2.8847-2.1539 1.6236-4.3079 1.3156-6.4619 1.5001-1.2448.17412-1.9402.45813-4.6155.34617-7.1213 4.6492-6.3948 8.1357-21.462 13.962z" filter="url(#ag)" fill="#7c1205"/>
     <path id="path123421" d="m2563.6 369.68c5.6758-3.0274 13.299-4.1071 16.971-9.1384 2.1755-2.0669 2.4394-3.178 6.5274-6.2011.7246-2.418-.1086-5.8746 2.2846-7.1802 2.4348.95844 1.8165 3.4434 2.6109 5.2219-1.2334 1.9889.6572.59358-3.9164 6.2011 2.2245-1.6353 3.0768-3.8968 4.0308-5.2642.3412-.97833-.9148-1.158 1.6155-3.2309 3.6135-.46156 2.7644-.92312 3.9232-1.3847.612.38119.7826.32097 2.5386 1.8462l1.7308.80773c.1659.92823 1.9018 1.2677-2.5385 3.9232 1.3489 2.6905 2.9868 5.4922.4615 6.6926-.7652.16526-.8761-.22207-2.1924 1.0385.6874.96158.4406 1.9232.2308 2.8847-2.1539 1.6236-4.3079 1.3156-6.4619 1.5001-1.2448.17412-1.9402.45813-4.6155.34617-7.1213 4.6492-6.3948 8.1357-21.462 13.962z" fill="#fba196"/>
     <path id="path123897" opacity="0.504" d="m2522.2 362.8c2.6808-6.0896 3.9615-14.332 15.755-21.516 14.075-5.177 20.135-.76887 23.347 9.6 3.4362 11.877 6.0526 40.554 17.258 59.591 6.6899 11.661 17.362 15.357 29.564 15.992 3.6648.43644 2.9606 17.542.9792 19.909-1.3756.65985-2.3469 2.5328-4.5692.65274-5.9695-2.2423-5.0289 4.8934-7.1802 7.8329-.8396 13.458-8.3531 13.151-13.708 17.298-3.0124.19567-6.0919 1.7354-8.812-3.9164-7.2062-8.2508-11.511-1.0929-22.846-.32637-8.873 2.4332-17.386 6.3978-27.415 3.9164-7.2707-2.8166-16.389-3.1693-25.457-3.5901-12.22 1.4074-19.653-4.7068-27.742-9.7912-4.0011-2.9494-6.6474-6.5762-8.8121-10.444-1.6796-2.5765 7.9358-1.9165 14.687-8.4856 17.533-18.768 38.05-50.838 48.303-69.191-2.4716-1.524-3.9521-2.6294-3.353-7.5313z" filter="url(#ak)" fill="#580d04"/>
     <path id="path123915" opacity="0.561" d="m2560.6 291.48c-4.1468 2.6729-8.247 4.6996-13.218 16.645l-9.4649 9.22c-.5654-2.0678-1.5573-2.7141-2.7741-2.611-2.3459 1.7565-1.3994 4.6104-1.3055 7.1802 4.8585 10.775 4.4929 14.422 4.406 18.603l-.4895.97911c5.3233 5.9622 14.34 6.6921 22.03 9.3016.6725-4.1672 2.0003-8.1473.6527-12.892 2.2995-1.5626 5.9952-2.8093 7.4357-5.2309 3.653-3.4402 2.6535-2.7631 3.8026-10.654 4.4114-1.2672 2.8982-4.487 1.3115-7.5618-1.3599-2.7203-2.4826-3.7152-3.8425-5.0681.534-1.7654 1.501-3.3911.311-6.3057-1.1728-3.517-2.7069-5.1083-4.4491-7.7714-1.7111-2.733-2.9712-2.76-4.406-3.8349z" filter="url(#aj)" fill="#7c1205"/>
     <path id="path123427" d="m2559.7 290.94c-4.1468 2.6729-8.247 4.6996-13.218 16.645l-8.7506 8.8628c-.5654-2.0678-2.2716-2.357-3.4884-2.2538-2.3459 1.7565-1.3994 4.6104-1.3055 7.1802 4.8585 10.775 4.4929 14.422 4.406 18.603l-.4895.97911c5.3233 5.9622 14.34 6.6921 22.03 9.3016.6725-4.1672 2.0003-8.1473.6527-12.892 2.2995-1.5626 5.4289-.0657 7.2482-3.4975 1.3256-2.319 5.3731-2.8325 3.7414-5.0645-1.4029-1.9966 2.9595-1.735 1.371-4.3135.1746-1.2752-.7084-3.2014 0-3.2705 2.0402-.62683 3.6251-2.0419 1.7705-4.2239-1.1789-1.091-3.7606-6.0134-5.1574-7.698.534-1.7654 1.6795-3.1232.4895-6.0379-1.1728-3.517-2.2933-5.8345-4.3904-8.675-2.6396-3.1309-3.6694-2.5-4.9742-3.5192z" fill="#fba196"/>
     <path id="path123419" d="m2520.8 362.8c2.6808-6.0896 3.9615-14.332 15.755-21.516 14.075-5.177 20.135-.76887 23.347 9.6 3.4362 11.877 6.0526 40.554 17.258 59.591 6.6899 11.661 17.362 15.357 29.564 15.992 3.6648.43644 2.9606 17.542.9792 19.909-1.3756.65985-2.3469 2.5328-4.5692.65274-5.9695-2.2423-5.0289 4.8934-7.1802 7.8329-.8396 13.458-8.3531 13.151-13.708 17.298-3.0124.19567-6.0919 1.7354-8.812-3.9164-7.2062-8.2508-11.511-1.0929-22.846-.32637-8.873 2.4332-17.386 6.3978-27.415 3.9164-7.2707-2.8166-16.389-3.1693-25.457-3.5901-12.22 1.4074-19.653-4.7068-27.742-9.7912-4.0011-2.9494-6.6474-6.5762-8.8121-10.444-1.6796-2.5765 7.9358-1.9165 14.687-8.4856 17.533-18.768 38.05-50.838 48.303-69.191-2.4716-1.524-3.9521-2.6294-3.353-7.5313z" fill="url(#b)"/>
     <path id="path123683" opacity="0.484" d="m2528.3 347.65c-10.922 4.5752-9.2092 30.677-12.424 40.476-3.445 3.1488-2.9294 14.491-17.765 37.294.7259 3.0721 1.9202 6.4247.8808 8.4398 1.821 4.081 1.5323 6.1641.4546 7.4999-.4562.48622-.8529 1.2756-1.623.16941-1.0707-6.436-1.58-4.6634-2.3684-6.972-2.3303.004-2.8877.0752-4.2538.11581-1.8021 4.791-5.4715 7.2507-8.7039 10.256-.3245.30172-.6446.60894-.9579.92457-.5548.52994-1.3263 2.3696-2.1914 2.3318-1.0008.13282-1.8139-.67624-1.4975-1.9485 3.5032-5.4835 5.9081-8.0454 7.9679-9.6897-.7073-.39088-.669-2.1591-2.9214.3049-1.5546 2.8225-4.311 4.7733-7.164 6.8183-.9493.69725-1.92 1.7056-3.6936 2.3543-.6958.49466-1.8109-.93534-.9018-2.367 3.2099-5.0558 7.7448-5.9886 10.564-9.9424 1.0117-1.3501-.1694-1.2417-2.1837-.58252-3.7239 1.0896-5.3793 2.2589-8.1814 5.3899-1.3329.97555-1.414-2.3109-.296-3.9648 4.1869-4.9327 6.7246-4.2225 10.002-6.044 1.4437-.64788-.3596-.86621-.5888-1.7516-2.6098-.10058-5.1672.29996-7.8631-.62787-.1542-.45846-1.7752-.60325 2.0168-1.9058 2.887-.44717 6.1451-.89996 8.9753-.41974 4.8276.69786 4.8845-1.8746 5.479-3.3511 6.6687-12.984 10.714-33.156 13.255-36.495 5.5816-8.4011 8.9278-13.636 11.872-18.302 4.2527-6.1764 8.8264-12.963 12.41-17.866 1.8363-3.7935 4.7519-6.7965 9.027-7.8331 8.8458-.37618-5.503-1.951-3.9351 2.0783-2.8956 5.067-8.1817 12.88-10.84 17.859z" filter="url(#an)" fill="#350702"/>
     <path id="path123417" d="m2548.1 361.52c-6.1921 4.8581-16.48 17.359-28.884 24.478-3.7533 2.7742-4.4178 14.108-21.541 35.248.4031 3.1309 1.2429 6.5893 0 8.4857 1.3876 4.2479.8842 6.2898-.3263 7.5065-.5043.43624-.9807 1.1802-1.6319 0-.3968-6.5124-1.0873-4.8022-1.6319-7.1802-2.3181-.23791-2.8799-.22491-4.2428-.32636-2.2897 4.578-6.1946 6.6436-9.7215 9.2974-.354.26641-.7043.53874-1.0487.82015-.6068.46948-1.5651 2.2191-2.4216 2.0917-1.0092.0282-1.7339-.86087-1.2872-2.0934 4.0536-5.0902 6.7114-7.3887 8.9307-8.8103-.6629-.46219-.4413-2.2169-2.9373 0-1.8391 2.6459-4.7831 4.3-7.833 6.0379-1.0166.59493-2.0867 1.4971-3.9181 1.9582-.7433.41976-1.704-1.1183-.6511-2.4478 3.7172-4.6953 8.3245-5.1523 11.538-8.7922 1.1463-1.2378-.043-1.2524-2.1115-.80604-3.8169.69716-5.5847 1.6883-8.6966 4.5115-1.427.83193-1.1665-2.4452.1171-3.9742 4.6763-4.4715 7.1266-3.5016 10.576-4.9731 1.5032-.49452-.2677-.89886-.4038-1.8032-2.5852-.37092-5.1703-.238-7.7554-1.4407-.1061-.47198-1.7029-.78426 2.2037-1.6862 2.9179-.14512 6.2053-.25721 8.9704.51416 4.7291 1.1952 5.0527-1.3575 5.7972-2.7643 7.9805-12.221 14.098-31.864 16.971-34.922 6.4235-7.7764 10.295-12.636 13.708-16.971 4.8708-5.7016 10.124-11.977 14.197-16.482 2.2202-3.5824 5.4317-6.2665 9.7912-6.8538 8.8372.54405 10.445 3.8258 11.586 7.9961-1.0459 5.2392-2.4437 10.283-7.3435 13.381z" fill="url(#a)"/>
     <path id="path123941" opacity=".569" d="m2560.7 291.88c-3.1268.34777-5.5747 4.415-8.308 6.6926-5.779 10.416-8.1529 13.694-14.308 18.462-5.1891-7.2961-5.1328 3.5868-3.2309 7.8465 5.0365 6.355 3.4252 14.13 3.5853 15.777-1.8798.90635-3.3344.96456-5.2683 3.0677-11.821-17.959-8.4349-27.384-6.8558-33.615 3.2305-8.539 7.4318-16.593 17.539-21.693 3.3737-1.6044 5.7705-2.2318 7.8465-2.5386 2.427.454 4.4629 1.6901 6.4618 3.0001.8627.9671 2.0631 1.2588 2.5386 3.0001z" filter="url(#ai)" fill="#8a1405"/>
     <path id="path123423" d="m2560.3 292.06c-3.1268.34777-5.5747 4.415-8.308 6.6926-5.779 10.416-8.1529 13.694-14.308 18.462-5.1891-7.2961-5.1328 3.5868-3.2309 7.8465 5.0365 6.355 3.4252 14.13 3.5853 15.777-1.8798.90635-3.1558 1.5003-5.0897 3.6034-11.821-17.959-8.6135-27.92-7.0344-34.15 3.2305-8.539 7.4318-16.593 17.539-21.693 3.3737-1.6044 5.7705-2.2318 7.8465-2.5386 2.427.454 4.4629 1.6901 6.4618 3.0001.8627.9671 2.0631 1.2588 2.5386 3.0001z" fill="#fba196"/>
    </g>
   </g>
  </g>
 </g>
</svg>
