<?xml version="1.0" encoding="UTF-8" standalone="no"?>
<!-- Created with Inkscape (http://www.inkscape.org/) -->

<svg
   xmlns:dc="http://purl.org/dc/elements/1.1/"
   xmlns:cc="http://creativecommons.org/ns#"
   xmlns:rdf="http://www.w3.org/1999/02/22-rdf-syntax-ns#"
   xmlns:svg="http://www.w3.org/2000/svg"
   xmlns="http://www.w3.org/2000/svg"
   xmlns:xlink="http://www.w3.org/1999/xlink"
   xmlns:sodipodi="http://sodipodi.sourceforge.net/DTD/sodipodi-0.dtd"
   xmlns:inkscape="http://www.inkscape.org/namespaces/inkscape"
   width="88.104729mm"
   height="87.944016mm"
   viewBox="0 0 312.18211 311.61265"
   id="svg243904"
   version="1.1"
   inkscape:version="0.91 r13725"
   sodipodi:docname="waving.svg">
  <defs
     id="defs243906">
    <linearGradient
       inkscape:collect="always"
       id="linearGradient362573">
      <stop
         style="stop-color:#bbb9e0;stop-opacity:1"
         offset="0"
         id="stop362575" />
      <stop
         style="stop-color:#6c67d5;stop-opacity:1"
         offset="1"
         id="stop362577" />
    </linearGradient>
    <linearGradient
       inkscape:collect="always"
       id="linearGradient362565">
      <stop
         style="stop-color:#bfbee8;stop-opacity:1"
         offset="0"
         id="stop362567" />
      <stop
         style="stop-color:#231feb;stop-opacity:1"
         offset="1"
         id="stop362569" />
    </linearGradient>
    <linearGradient
       inkscape:collect="always"
       id="linearGradient362551">
      <stop
         style="stop-color:#9897db;stop-opacity:1"
         offset="0"
         id="stop362553" />
      <stop
         id="stop362561"
         offset="1"
         style="stop-color:#3532d0;stop-opacity:1;" />
      <stop
         id="stop362559"
         offset="1"
         style="stop-color:#6362d6;stop-opacity:1;" />
      <stop
         style="stop-color:#2a299b;stop-opacity:0.78431374"
         offset="1"
         id="stop362555" />
    </linearGradient>
    <linearGradient
       inkscape:collect="always"
       id="linearGradient362543">
      <stop
         style="stop-color:#001e7f;stop-opacity:1;"
         offset="0"
         id="stop362545" />
      <stop
         style="stop-color:#8197dc;stop-opacity:1"
         offset="1"
         id="stop362547" />
    </linearGradient>
    <linearGradient
       inkscape:collect="always"
       id="linearGradient362535">
      <stop
         style="stop-color:#5d5688;stop-opacity:1;"
         offset="0"
         id="stop362537" />
      <stop
         style="stop-color:#857dba;stop-opacity:1"
         offset="1"
         id="stop362539" />
    </linearGradient>
    <linearGradient
       inkscape:collect="always"
       id="linearGradient362527">
      <stop
         style="stop-color:#6259b0;stop-opacity:1;"
         offset="0"
         id="stop362529" />
      <stop
         style="stop-color:#b5b1da;stop-opacity:1"
         offset="1"
         id="stop362531" />
    </linearGradient>
    <linearGradient
       inkscape:collect="always"
       xlink:href="#linearGradient362527"
       id="linearGradient362533"
       x1="-1016.695"
       y1="645.3454"
       x2="-808.6272"
       y2="540.79462"
       gradientUnits="userSpaceOnUse" />
    <linearGradient
       inkscape:collect="always"
       xlink:href="#linearGradient362535"
       id="linearGradient362541"
       x1="-1040.9622"
       y1="555.14868"
       x2="-925.67474"
       y2="588.4837"
       gradientUnits="userSpaceOnUse" />
    <linearGradient
       inkscape:collect="always"
       xlink:href="#linearGradient362543"
       id="linearGradient362549"
       x1="-857.54559"
       y1="530.13879"
       x2="-925.1803"
       y2="558.42303"
       gradientUnits="userSpaceOnUse" />
    <radialGradient
       inkscape:collect="always"
       xlink:href="#linearGradient362551"
       id="radialGradient362563"
       cx="-927.77112"
       cy="518.19067"
       fx="-927.77112"
       fy="518.19067"
       r="110.02715"
       gradientTransform="matrix(1.0876519,0.05066388,-0.06211766,1.3335412,113.97667,-127.48133)"
       gradientUnits="userSpaceOnUse" />
    <radialGradient
       inkscape:collect="always"
       xlink:href="#linearGradient362565"
       id="radialGradient362571"
       cx="-911.75922"
       cy="532.79108"
       fx="-911.75922"
       fy="532.79108"
       r="117.44462"
       gradientTransform="matrix(1.7313709,0.02278011,-0.02103288,1.5985751,677.7752,-299.7062)"
       gradientUnits="userSpaceOnUse" />
    <radialGradient
       inkscape:collect="always"
       xlink:href="#linearGradient362573"
       id="radialGradient362579"
       cx="-891.9093"
       cy="510.46521"
       fx="-891.9093"
       fy="510.46521"
       r="118.81642"
       gradientTransform="matrix(1.480377,-0.01944391,0.01616678,1.2308688,416.99063,-137.63357)"
       gradientUnits="userSpaceOnUse" />
    <filter
       inkscape:collect="always"
       style="color-interpolation-filters:sRGB"
       id="filter362603"
       x="-0.059999999"
       width="1.12"
       y="-0.059999999"
       height="1.12">
      <feGaussianBlur
         inkscape:collect="always"
         stdDeviation="7.0014336"
         id="feGaussianBlur362605" />
    </filter>
  </defs>
  <sodipodi:namedview
     id="base"
     pagecolor="#ffffff"
     bordercolor="#666666"
     borderopacity="1.0"
     inkscape:pageopacity="0.0"
     inkscape:pageshadow="2"
     inkscape:zoom="0.98994949"
     inkscape:cx="58.70963"
     inkscape:cy="191.5132"
     inkscape:document-units="px"
     inkscape:current-layer="layer1"
     showgrid="false"
     fit-margin-top="0"
     fit-margin-left="0"
     fit-margin-right="0"
     fit-margin-bottom="0"
     inkscape:window-width="1920"
     inkscape:window-height="1023"
     inkscape:window-x="0"
     inkscape:window-y="0"
     inkscape:window-maximized="1" />
  <metadata
     id="metadata243909">
    <rdf:RDF>
      <cc:Work
         rdf:about="">
        <dc:format>image/svg+xml</dc:format>
        <dc:type
           rdf:resource="http://purl.org/dc/dcmitype/StillImage" />
        <dc:title></dc:title>
      </cc:Work>
    </rdf:RDF>
  </metadata>
  <g
     inkscape:label="Layer 1"
     inkscape:groupmode="layer"
     id="layer1"
     transform="translate(1055.9708,-367.29726)">
    <g
       id="g362607">
      <rect
         transform="matrix(0.99527486,0,0,0.99345931,-6.0113905,4.4250009)"
         style="opacity:0.69499966;fill:#000c18;fill-opacity:1;fill-rule:evenodd;stroke:none;stroke-width:1.39999998;stroke-linecap:round;stroke-linejoin:round;stroke-miterlimit:4;stroke-dasharray:none;stroke-dashoffset:0;stroke-opacity:1;filter:url(#filter362603)"
         id="rect362581"
         width="280.05734"
         height="280.05734"
         x="-1038.1407"
         y="382.06476"
         ry="67.185471" />
      <rect
         ry="66.157333"
         y="382.12601"
         x="-1040.457"
         height="275.77164"
         width="275.77164"
         id="rect362477"
         style="opacity:1;fill:#c4e2ff;fill-opacity:1;fill-rule:evenodd;stroke:none;stroke-width:1.39999998;stroke-linecap:round;stroke-linejoin:round;stroke-miterlimit:4;stroke-dasharray:none;stroke-dashoffset:0;stroke-opacity:1" />
      <path
         id="ellipse362470"
         d="m -892.39258,402.67383 a 145.95682,131.41179 20.5358 0 0 -100.40625,40.0625 145.95682,131.41179 20.5358 0 0 -9.51957,11.19336 140.64502,127.97869 23.487242 0 1 78.67973,-24.11328 140.64502,127.97869 23.487242 0 1 98.98828,37.10742 140.64502,127.97869 23.487242 0 1 15.63867,183.93945 140.64502,127.97869 23.487242 0 1 -5.14258,4.92578 c 3.0514,-0.7875 6.01529,-1.78891 8.87696,-2.98242 a 145.95682,131.41179 20.5358 0 0 19.40039,-12.47266 c 13.04256,-12.06839 21.1914,-29.34091 21.1914,-48.59375 l 0,-124.17773 a 145.95682,131.41179 20.5358 0 0 -24.76757,-26.86523 145.95682,131.41179 20.5358 0 0 -102.93946,-38.02344 z m 78.23828,253.11523 c -0.17028,0.0439 -0.34286,0.0824 -0.51367,0.125 0.17086,-0.0426 0.34335,-0.081 0.51367,-0.125 z M -950.48828,442.88672 a 125.1733,114.53945 26.071498 0 0 -3.78906,0.24609 125.1733,114.53945 26.071498 0 1 8.42968,-0.24219 125.1733,114.53945 26.071498 0 0 -4.64062,-0.004 z m -9.90039,0.64258 a 125.1733,114.53945 26.071498 0 0 -5.98047,0.74804 125.1733,114.53945 26.071498 0 1 5.98047,-0.74804 z m 25.04297,0.0801 a 125.1733,114.53945 26.071498 0 1 6.16015,0.83203 125.1733,114.53945 26.071498 0 0 -6.16015,-0.83203 z m -37.08203,1.65624 a 125.1733,114.53945 26.071498 0 0 -5.76563,1.30274 125.1733,114.53945 26.071498 0 1 5.76563,-1.30274 z m 49.35937,0.17579 a 125.1733,114.53945 26.071498 0 1 6.04883,1.39843 125.1733,114.53945 26.071498 0 0 -6.04883,-1.39843 z m -61.0625,2.70507 a 125.1733,114.53945 26.071498 0 0 -5.48828,1.83008 125.1733,114.53945 26.071498 0 1 5.48828,-1.83008 z m 73.14063,0.26172 a 125.1733,114.53945 26.071498 0 1 5.96679,1.97461 125.1733,114.53945 26.071498 0 0 -5.96679,-1.97461 z m -84.40625,3.74024 a 125.1733,114.53945 26.071498 0 0 -5.18552,2.33398 125.1733,114.53945 26.071498 0 1 5.18552,-2.33398 z m 96.20117,0.33594 a 125.1733,114.53945 26.071498 0 1 5.74414,2.5039 125.1733,114.53945 26.071498 0 0 -5.74414,-2.5039 z m -72.3711,0.40234 a 103.96522,103.96522 0 0 0 -5.66406,0.30664 103.96522,103.96522 0 0 1 5.66406,-0.30664 z m 8.88477,0.44531 a 103.96522,103.96522 0 0 1 5.08594,0.61719 103.96522,103.96522 0 0 0 -5.08594,-0.61719 z m -19.73047,0.1875 a 103.96522,103.96522 0 0 0 -5.14062,0.79883 103.96522,103.96522 0 0 1 5.14062,-0.79883 z m 30.02149,1.2168 a 103.96522,103.96522 0 0 1 5.02539,1.1289 103.96522,103.96522 0 0 0 -5.02539,-1.1289 z m -40.29102,0.42578 a 103.96522,103.96522 0 0 0 -5.0918,1.32227 103.96522,103.96522 0 0 1 5.0918,-1.32227 z m 50.37305,1.99414 a 103.96522,103.96522 0 0 1 4.91992,1.63477 103.96522,103.96522 0 0 0 -4.91992,-1.63477 z m 54.52343,0.48437 a 125.1733,114.53945 26.071498 0 1 5.47852,3.01172 125.1733,114.53945 26.071498 0 0 -5.47852,-3.01172 z m -44.72265,2.93165 a 103.96522,103.96522 0 0 1 4.73047,2.11718 103.96522,103.96522 0 0 0 -4.73047,-2.11718 z m 55.59179,3.23632 a 125.1733,114.53945 26.071498 0 1 5.15625,3.48438 125.1733,114.53945 26.071498 0 0 -5.15625,-3.48438 z m -46.16796,1.14844 a 103.96522,103.96522 0 0 1 4.48437,2.57227 103.96522,103.96522 0 0 0 -4.48437,-2.57227 z m 8.94531,5.30859 a 103.96522,103.96522 0 0 1 4.1582,2.97266 103.96522,103.96522 0 0 0 -4.1582,-2.97266 z m 47.46679,0.66602 a 125.1733,114.53945 26.071498 0 1 8.21876,6.73633 125.1733,114.53945 26.071498 0 0 -8.21876,-6.73633 z m -39.11328,5.49609 a 103.96522,103.96522 0 0 1 3.87305,3.40235 103.96522,103.96522 0 0 0 -3.87305,-3.40235 z m 7.6875,6.95508 a 103.96522,103.96522 0 0 1 3.55274,3.8125 103.96522,103.96522 0 0 0 -3.55274,-3.8125 z m 47.16407,1.71289 a 125.1733,114.53945 26.071498 0 1 4.09375,4.61719 125.1733,114.53945 26.071498 0 0 -4.09375,-4.61719 z m -40.20118,5.98242 a 103.96522,103.96522 0 0 1 3.16211,4.16016 103.96522,103.96522 0 0 0 -3.16211,-4.16016 z m 48.25977,3.36719 a 125.1733,114.53945 26.071498 0 1 3.59375,4.92383 125.1733,114.53945 26.071498 0 0 -3.59375,-4.92383 z m -42.09766,4.99024 a 103.96522,103.96522 0 0 1 2.72461,4.4414 103.96522,103.96522 0 0 0 -2.72461,-4.4414 z m 49.16602,4.98437 a 125.1733,114.53945 26.071498 0 1 3.08398,5.20899 125.1733,114.53945 26.071498 0 0 -3.08398,-5.20899 z m -43.85352,3.97266 a 103.96522,103.96522 0 0 1 2.23047,4.61523 103.96522,103.96522 0 0 0 -2.23047,-4.61523 z m 49.89454,6.57422 a 125.1733,114.53945 26.071498 0 1 2.52343,5.4082 125.1733,114.53945 26.071498 0 0 -2.52343,-5.4082 z m -45.51368,2.8457 a 103.96522,103.96522 0 0 1 1.76368,4.83398 103.96522,103.96522 0 0 0 -1.76368,-4.83398 z m 50.43946,8.12305 a 125.1733,114.53945 26.071498 0 1 1.97265,5.62304 125.1733,114.53945 26.071498 0 0 -1.97265,-5.62304 z m -47.03125,1.66211 a 103.96522,103.96522 0 0 1 1.28711,5.03711 103.96522,103.96522 0 0 0 -1.28711,-5.03711 z m 50.81054,9.64453 a 125.1733,114.53945 26.071498 0 1 1.38672,5.76367 125.1733,114.53945 26.071498 0 0 -1.38672,-5.76367 z m -48.38476,0.46289 a 103.96522,103.96522 0 0 1 0.77734,5.14258 103.96522,103.96522 0 0 0 -0.77734,-5.14258 z m 1.40039,10.28515 a 103.96522,103.96522 0 0 1 0.44336,8.86133 103.96522,103.96522 0 0 0 -0.44336,-8.86133 z m 49.58008,0.78711 a 125.1733,114.53945 26.071498 0 1 0.77929,5.82422 125.1733,114.53945 26.071498 0 0 -0.77929,-5.82422 z m 1.38086,11.64258 a 125.1733,114.53945 26.071498 0 1 0.16601,5.8418 125.1733,114.53945 26.071498 0 0 -0.16601,-5.8418 z m -50.88086,3.5293 a 103.96522,103.96522 0 0 1 -0.45508,5.17187 103.96522,103.96522 0 0 0 0.45508,-5.17187 z m 51.0332,8.10351 a 125.1733,114.53945 26.071498 0 1 -0.45117,5.79883 125.1733,114.53945 26.071498 0 0 0.45117,-5.79883 z m -52.27734,2.23829 a 103.96522,103.96522 0 0 1 -0.96485,5.06836 103.96522,103.96522 0 0 0 0.96485,-5.06836 z m 51.20312,9.26757 a 125.1733,114.53945 26.071498 0 1 -1.06641,5.69141 125.1733,114.53945 26.071498 0 0 1.06641,-5.69141 z m -53.45898,0.83789 a 103.96522,103.96522 0 0 1 -1.47657,4.98047 103.96522,103.96522 0 0 0 1.47657,-4.98047 z m -3.25977,9.84766 a 103.96522,103.96522 0 0 1 -1.96484,4.80859 103.96522,103.96522 0 0 0 1.96484,-4.80859 z m 54.42383,0.58594 a 125.1733,114.53945 26.071498 0 1 -1.66797,5.51758 125.1733,114.53945 26.071498 0 0 1.66797,-5.51758 z m -58.66992,8.92969 a 103.96522,103.96522 0 0 1 -2.42383,4.5664 103.96522,103.96522 0 0 0 2.42383,-4.5664 z m 55.17773,1.99218 a 125.1733,114.53945 26.071498 0 1 -2.24609,5.27735 125.1733,114.53945 26.071498 0 0 2.24609,-5.27735 z m -60.31445,6.98633 a 103.96522,103.96522 0 0 1 -2.88867,4.33203 103.96522,103.96522 0 0 0 2.88867,-4.33203 z m 55.66406,3.4707 a 125.1733,114.53945 26.071498 0 1 -2.80859,5.00196 125.1733,114.53945 26.071498 0 0 2.80859,-5.00196 z m -61.69922,4.99024 a 103.96522,103.96522 0 0 1 -3.28711,3.99805 103.96522,103.96522 0 0 0 3.28711,-3.99805 z m 55.9336,4.90039 a 125.1733,114.53945 26.071498 0 1 -3.33985,4.66992 125.1733,114.53945 26.071498 0 0 3.33985,-4.66992 z M -897,629.02148 a 103.96522,103.96522 0 0 1 -3.6543,3.63477 103.96522,103.96522 0 0 0 3.6543,-3.63477 z m 55.96875,6.30274 a 125.1733,114.53945 26.071498 0 1 -6.55469,7.33398 125.1733,114.53945 26.071498 0 0 6.55469,-7.33398 z m -63.56055,0.7832 a 103.96522,103.96522 0 0 1 -3.97851,3.23633 103.96522,103.96522 0 0 0 3.97851,-3.23633 z m -8.25,6.2832 a 103.96522,103.96522 0 0 1 -4.31836,2.84376 103.96522,103.96522 0 0 0 4.31836,-2.84376 z m 60.44922,4.55079 a 125.1733,114.53945 26.071498 0 1 -4.41211,3.83398 125.1733,114.53945 26.071498 0 0 4.41211,-3.83398 z m -69.29492,0.88281 a 103.96522,103.96522 0 0 1 -4.56836,2.39648 103.96522,103.96522 0 0 0 4.56836,-2.39648 z m -9.35547,4.53125 a 103.96522,103.96522 0 0 1 -4.76367,1.91797 103.96522,103.96522 0 0 0 4.76367,-1.91797 z m 114.01758,4.09961 c -0.25434,0.0537 -0.50825,0.10741 -0.76367,0.1582 0.25543,-0.0507 0.50933,-0.10455 0.76367,-0.1582 z m -3.48242,0.64258 c -0.22504,0.0351 -0.45194,0.0648 -0.67774,0.0976 0.22586,-0.0328 0.45264,-0.0626 0.67774,-0.0976 z m -3.25196,0.42187 c -0.1408,0.0149 -0.2808,0.0328 -0.42187,0.0469 0.14118,-0.014 0.28096,-0.032 0.42187,-0.0469 z m -3.35156,0.26953 c -0.23956,0.0133 -0.48044,0.0225 -0.7207,0.0332 0.24051,-0.0107 0.48088,-0.02 0.7207,-0.0332 z"
         style="opacity:1;fill:url(#radialGradient362579);fill-opacity:1;fill-rule:evenodd;stroke:none;stroke-width:1.39999998;stroke-linecap:round;stroke-linejoin:round;stroke-miterlimit:4;stroke-dasharray:none;stroke-dashoffset:0;stroke-opacity:1"
         inkscape:connector-curvature="0" />
      <path
         id="ellipse362468"
         d="m -923.63867,429.81641 a 140.64502,127.97869 23.487242 0 0 -84.50973,28.37304 81.822357,81.822357 0 0 1 0.1543,-0.0195 125.1733,114.53945 26.071498 0 1 62.14644,-15.2793 125.1733,114.53945 26.071498 0 1 87.39454,34.77735 125.1733,114.53945 26.071498 0 1 10.86718,164.99023 125.1733,114.53945 26.071498 0 1 -19.29883,15.24024 l 36.04297,0 c 5.76944,0 11.35939,-0.73431 16.6875,-2.10938 a 140.64502,127.97869 23.487242 0 0 5.14258,-4.92578 140.64502,127.97869 23.487242 0 0 -15.63867,-183.93945 140.64502,127.97869 23.487242 0 0 -98.98828,-37.10742 z m -47.92774,23.07031 a 103.96522,103.96522 0 0 0 -5.73632,0.31055 103.96522,103.96522 0 0 1 5.73632,-0.31055 z m 8.87305,0.44336 a 103.96522,103.96522 0 0 1 5.11524,0.62109 103.96522,103.96522 0 0 0 -5.11524,-0.62109 z m -19.7168,0.18945 a 103.96522,103.96522 0 0 0 -5.19336,0.80664 103.96522,103.96522 0 0 1 5.19336,-0.80664 z m 30.00586,1.21289 a 103.96522,103.96522 0 0 1 5.04688,1.13477 103.96522,103.96522 0 0 0 -5.04688,-1.13477 z m -40.27343,0.42969 a 103.96522,103.96522 0 0 0 -5.10938,1.32617 103.96522,103.96522 0 0 1 5.10938,-1.32617 z m 50.36718,1.99414 a 103.96522,103.96522 0 0 1 4.93555,1.64063 103.96522,103.96522 0 0 0 -4.93555,-1.64063 z m 9.79297,3.41211 a 103.96522,103.96522 0 0 1 4.76758,2.13476 103.96522,103.96522 0 0 0 -4.76758,-2.13476 z m 9.42188,4.38281 a 103.96522,103.96522 0 0 1 4.5,2.58008 103.96522,103.96522 0 0 0 -4.5,-2.58008 z m 8.95117,5.31055 a 103.96522,103.96522 0 0 1 4.17773,2.98633 103.96522,103.96522 0 0 0 -4.17773,-2.98633 z m 8.35547,6.16211 a 103.96522,103.96522 0 0 1 3.87695,3.40625 103.96522,103.96522 0 0 0 -3.87695,-3.40625 z m 7.6914,6.95898 a 103.96522,103.96522 0 0 1 3.55274,3.81446 103.96522,103.96522 0 0 0 -3.55274,-3.81446 z m 6.95899,7.69141 a 103.96522,103.96522 0 0 1 3.17578,4.17773 103.96522,103.96522 0 0 0 -3.17578,-4.17773 z m 6.16211,8.35547 a 103.96522,103.96522 0 0 1 2.73047,4.45117 103.96522,103.96522 0 0 0 -2.73047,-4.45117 z m 5.31054,8.95117 a 103.96522,103.96522 0 0 1 2.24805,4.6543 103.96522,103.96522 0 0 0 -2.24805,-4.6543 z m 4.38282,9.42187 a 103.96522,103.96522 0 0 1 1.77148,4.85743 103.96522,103.96522 0 0 0 -1.77148,-4.85743 z m 3.41211,9.79297 a 103.96522,103.96522 0 0 1 1.28906,5.04688 103.96522,103.96522 0 0 0 -1.28906,-5.04688 z m 2.42382,10.09375 a 103.96522,103.96522 0 0 1 0.78125,5.17383 103.96522,103.96522 0 0 0 -0.78125,-5.17383 z m 1.40235,10.28907 a 103.96522,103.96522 0 0 1 0.44336,8.87304 103.96522,103.96522 0 0 0 -0.44336,-8.87304 z m 0.0801,15.9707 a 103.96522,103.96522 0 0 1 -0.45704,5.18555 103.96522,103.96522 0 0 0 0.45704,-5.18555 z m -1.24024,10.3164 a 103.96522,103.96522 0 0 1 -0.9707,5.10157 103.96522,103.96522 0 0 0 0.9707,-5.10157 z m -2.25781,10.12305 a 103.96522,103.96522 0 0 1 -1.48242,4.99805 103.96522,103.96522 0 0 0 1.48242,-4.99805 z m -3.25977,9.85156 a 103.96522,103.96522 0 0 1 -1.96875,4.81836 103.96522,103.96522 0 0 0 1.96875,-4.81836 z m -4.23242,9.49219 a 103.96522,103.96522 0 0 1 -2.4414,4.5957 103.96522,103.96522 0 0 0 2.4414,-4.5957 z m -5.14453,8.99414 a 103.96522,103.96522 0 0 1 -2.90039,4.34961 103.96522,103.96522 0 0 0 2.90039,-4.34961 z m -6.0332,8.46094 a 103.96522,103.96522 0 0 1 -3.30664,4.02148 103.96522,103.96522 0 0 0 3.30664,-4.02148 z m -6.84961,7.81445 a 103.96522,103.96522 0 0 1 -3.67578,3.65821 103.96522,103.96522 0 0 0 3.67578,-3.65821 z m -7.60547,7.10157 a 103.96522,103.96522 0 0 1 -3.99805,3.25195 103.96522,103.96522 0 0 0 3.99805,-3.25195 z m -8.24414,6.27929 a 103.96522,103.96522 0 0 1 -4.33789,2.85742 103.96522,103.96522 0 0 0 4.33789,-2.85742 z m -97.94919,4.58008 a 140.64502,127.97869 23.487242 0 0 0.072,0.0684 c 0.5975,0.39322 1.1977,0.78211 1.8086,1.15625 -0.6386,-0.39174 -1.2577,-0.81125 -1.8808,-1.22461 z m 89.11716,0.84961 a 103.96522,103.96522 0 0 1 -4.59766,2.41016 103.96522,103.96522 0 0 0 4.59766,-2.41016 z m -87.22656,0.38281 c 0.3897,0.2386 0.7885,0.46267 1.1836,0.69336 -0.3952,-0.23069 -0.7939,-0.4548 -1.1836,-0.69336 z m 1.1836,0.69336 c 1.2736,0.74373 2.5719,1.44824 3.8984,2.10742 -1.3258,-0.65941 -2.6255,-1.36348 -3.8984,-2.10742 z m 3.9297,2.12305 c 0.4054,0.20122 0.8105,0.4026 1.2207,0.5957 -0.4101,-0.19317 -0.8153,-0.39443 -1.2207,-0.5957 z m 72.74412,1.33984 a 103.96522,103.96522 0 0 1 -4.78321,1.92578 103.96522,103.96522 0 0 0 4.78321,-1.92578 z m -69.82422,0.0215 c 0.3073,0.13417 0.6101,0.27662 0.91992,0.40625 -0.30962,-0.12996 -0.61362,-0.2703 -0.91992,-0.40625 z m 3.54883,1.4375 c 0.31348,0.11561 0.63153,0.22103 0.94726,0.33203 -0.31573,-0.11101 -0.63372,-0.21655 -0.94726,-0.33203 z m 2.8164,0.96289 c 0.36934,0.11751 0.74112,0.22865 1.11328,0.33984 -0.18806,-0.0562 -0.37493,-0.11481 -0.5625,-0.17187 -0.18361,-0.0558 -0.36796,-0.10996 -0.55078,-0.16797 z m 1.11328,0.33984 c 0.94678,0.28287 1.9009,0.54974 2.86524,0.79102 -0.0602,-0.0151 -0.1197,-0.0314 -0.17969,-0.0469 -0.90297,-0.22881 -1.79806,-0.47877 -2.68555,-0.74414 z m 2.86524,0.79102 c 3.88749,0.97263 7.914,1.59684 12.04492,1.85156 -4.13103,-0.2549 -8.15794,-0.87827 -12.04492,-1.85156 z m 12.15429,1.85937 c 0.32097,0.0193 0.64068,0.0419 0.9629,0.0566 -0.16213,-0.007 -0.32306,-0.0193 -0.48438,-0.0293 -0.15938,-0.01 -0.31909,-0.0179 -0.47852,-0.0273 z"
         style="opacity:1;fill:url(#radialGradient362571);fill-opacity:1;fill-rule:evenodd;stroke:none;stroke-width:1.39999998;stroke-linecap:round;stroke-linejoin:round;stroke-miterlimit:4;stroke-dasharray:none;stroke-dashoffset:0;stroke-opacity:1"
         inkscape:connector-curvature="0" />
      <path
         inkscape:connector-curvature="0"
         id="circle362466"
         d="m -945.84768,442.89062 a 125.1733,114.53945 26.071498 0 0 -62.38282,15.40626 81.822357,81.822357 0 0 1 5.0371,-0.35157 103.96522,103.96522 0 0 1 0,-0.002 103.96522,103.96522 0 0 1 31.62307,-5.05664 103.96522,103.96522 0 0 1 103.96485,103.96484 103.96522,103.96522 0 0 1 -79.99219,101.04688 l 80.70898,0 a 125.1733,114.53945 26.071498 0 0 19.29887,-15.24024 125.1733,114.53945 26.071498 0 0 -10.86722,-164.99023 125.1733,114.53945 26.071498 0 0 -87.39454,-34.77735 z m -90.97852,170.54102 c 1.6776,4.86397 3.9026,9.46471 6.6055,13.73438 -2.7003,-4.26835 -4.9246,-8.87091 -6.6016,-13.73243 a 81.822357,81.822357 0 0 1 0,-0.002 z m 6.6055,13.73438 c 1.7695,2.79519 3.7415,5.44519 5.8984,7.93359 -2.1551,-2.48851 -4.1302,-5.13861 -5.8984,-7.93359 z m 6.1016,8.16796 c 0.4986,0.5699 1.0057,1.13134 1.5234,1.6836 -0.5174,-0.55239 -1.0251,-1.11358 -1.5234,-1.6836 z m 1.7695,1.94141 c 1.5837,1.67113 3.2519,3.25991 5.0019,4.75781 -1.7492,-1.49859 -3.419,-3.08601 -5.0019,-4.75781 z m 5.3652,5.07227 c 0.5062,0.42693 1.0219,0.84211 1.541,1.2539 -0.5186,-0.41178 -1.0353,-0.827 -1.541,-1.2539 z m 2.1973,1.76953 c 0.4859,0.37556 0.976,0.74526 1.4726,1.10742 -0.4965,-0.36246 -0.9868,-0.73156 -1.4726,-1.10742 z m 2.3223,1.71093 c 0.4734,0.33396 0.9451,0.67049 1.4277,0.99219 -0.4822,-0.32177 -0.9547,-0.65816 -1.4277,-0.99219 z m 3.5722,2.36524 c 0.3905,0.23908 0.7897,0.46417 1.1856,0.69531 -0.3955,-0.23113 -0.7955,-0.45625 -1.1856,-0.69531 z m 2.5137,1.45898 c 0.4109,0.22731 0.8259,0.44727 1.2422,0.66602 -0.4161,-0.21885 -0.8315,-0.43861 -1.2422,-0.66602 z m 2.5937,1.35547 c 0.4125,0.20477 0.8249,0.40911 1.2422,0.60547 -0.4172,-0.19646 -0.8298,-0.4006 -1.2422,-0.60547 z m 2.8125,1.31446 c 0.3519,0.15443 0.6996,0.31638 1.05471,0.46484 -0.35481,-0.14851 -0.70301,-0.31037 -1.05471,-0.46484 z m 3.65627,1.48632 c 0.31597,0.11658 0.63683,0.2221 0.95508,0.33399 -0.318,-0.11189 -0.63936,-0.2174 -0.95508,-0.33399 z m 2.80664,0.95899 c 0.3752,0.11949 0.75275,0.23273 1.13086,0.3457 -0.37816,-0.11308 -0.75562,-0.22609 -1.13086,-0.3457 z m 2.94922,0.85937 c 0.34865,0.0933 0.69595,0.18955 1.04688,0.27735 -0.35058,-0.0878 -0.69858,-0.18401 -1.04688,-0.27735 z m 3.55664,0.85352 c 0.13157,0.0275 0.26073,0.0612 0.39258,0.0879 -0.13189,-0.0268 -0.26097,-0.0603 -0.39258,-0.0879 z m 3.3418,0.61133 c 0.3136,0.0489 0.63024,0.0883 0.94531,0.13281 -0.31509,-0.0446 -0.63169,-0.0838 -0.94531,-0.13281 z m 3.08984,0.40234 c 0.33595,0.0364 0.6723,0.0701 1.00977,0.10156 -0.33728,-0.0314 -0.67401,-0.0651 -1.00977,-0.10156 z m 3.18165,0.26758 c 0.33137,0.02 0.66143,0.0434 0.99414,0.0586 -0.33255,-0.0152 -0.66294,-0.0385 -0.99414,-0.0586 z"
         style="opacity:1;fill:url(#radialGradient362563);fill-opacity:1;fill-rule:evenodd;stroke:none;stroke-width:1.39999998;stroke-linecap:round;stroke-linejoin:round;stroke-miterlimit:4;stroke-dasharray:none;stroke-dashoffset:0;stroke-opacity:1" />
      <path
         id="circle362464"
         d="m -971.56641,452.88672 a 103.96522,103.96522 0 0 0 -31.62699,5.05859 81.822357,81.822357 0 0 1 1.627,-0.0586 81.822357,81.822357 0 0 1 81.82226,81.82226 81.822357,81.822357 0 0 1 -81.82226,81.82227 81.822357,81.822357 0 0 1 -35.2813,-8.16602 c 8.9242,25.96422 33.4807,44.53321 62.54887,44.53321 l 26.70508,0 a 103.96522,103.96522 0 0 0 79.99219,-101.04688 103.96522,103.96522 0 0 0 -103.96485,-103.96484 z"
         style="opacity:0.97600002;fill:url(#linearGradient362549);fill-opacity:1;fill-rule:evenodd;stroke:none;stroke-width:1.39999998;stroke-linecap:round;stroke-linejoin:round;stroke-miterlimit:4;stroke-dasharray:none;stroke-dashoffset:0;stroke-opacity:1"
         inkscape:connector-curvature="0" />
      <path
         id="path362472"
         d="m -1003.9277,549.37695 c -13.4942,0.17641 -25.773,2.12582 -36.5293,5.47852 l 0,36.88476 c 0,36.65117 29.507,66.15821 66.15817,66.15821 l 15.55274,0 c 32.17971,-9.21705 57.08842,-28.94529 60.16211,-51.49219 4.64691,-34.08723 -80.34336,-57.35613 -105.34372,-57.0293 z"
         style="opacity:1;fill:url(#linearGradient362541);fill-opacity:1;fill-rule:evenodd;stroke:none;stroke-width:1.39999998;stroke-linecap:round;stroke-linejoin:round;stroke-miterlimit:4;stroke-dasharray:none;stroke-dashoffset:0;stroke-opacity:1"
         inkscape:connector-curvature="0" />
      <path
         id="path362475"
         d="m -851.68555,537.84961 c -49.88343,-1.01298 -66.77148,64.87904 -127.94336,62.48437 -12.94106,-0.5066 -36.97399,4.21599 -58.52339,-20.18945 0,0 -1.252,4.99416 -2.2813,12.54102 0.5045,36.20979 29.8007,65.21289 66.13477,65.21289 l 143.45703,0 c 36.65117,0 66.15625,-29.50704 66.15625,-66.15821 l 0,-11.03711 c -20.49115,-18.80879 -53.22378,-40.80115 -84.59961,-42.7539 -0.80873,-0.0503 -1.60859,-0.0835 -2.40039,-0.0996 z"
         style="opacity:1;fill:url(#linearGradient362533);fill-opacity:1;fill-rule:evenodd;stroke:none;stroke-width:1.39999998;stroke-linecap:round;stroke-linejoin:round;stroke-miterlimit:4;stroke-dasharray:none;stroke-dashoffset:0;stroke-opacity:1"
         inkscape:connector-curvature="0" />
    </g>
  </g>
</svg>
